<mxfile host="app.diagrams.net" agent="Mozilla/5.0 (Windows NT 10.0; Win64; x64) AppleWebKit/537.36 (KHTML, like Gecko) Chrome/134.0.0.0 Safari/537.36" version="26.1.3">
  <diagram name="Страница — 1" id="cCV8ACYhsQfNBe1hFzEs">
    <mxGraphModel grid="1" page="1" gridSize="10" guides="1" tooltips="1" connect="1" arrows="1" fold="1" pageScale="1" pageWidth="827" pageHeight="1169" math="0" shadow="0">
      <root>
        <mxCell id="0" />
        <mxCell id="1" parent="0" />
        <mxCell id="OldqRtlPYzOYGnIXXvg7-1" value=":Client" style="shape=umlLifeline;perimeter=lifelinePerimeter;whiteSpace=wrap;html=1;container=0;dropTarget=0;collapsible=0;recursiveResize=0;outlineConnect=0;portConstraint=eastwest;newEdgeStyle={&quot;edgeStyle&quot;:&quot;elbowEdgeStyle&quot;,&quot;elbow&quot;:&quot;vertical&quot;,&quot;curved&quot;:0,&quot;rounded&quot;:0};" vertex="1" parent="1">
          <mxGeometry x="245" y="40" width="100" height="3410" as="geometry" />
        </mxCell>
        <mxCell id="OldqRtlPYzOYGnIXXvg7-2" value="" style="html=1;points=[];perimeter=orthogonalPerimeter;outlineConnect=0;targetShapes=umlLifeline;portConstraint=eastwest;newEdgeStyle={&quot;edgeStyle&quot;:&quot;elbowEdgeStyle&quot;,&quot;elbow&quot;:&quot;vertical&quot;,&quot;curved&quot;:0,&quot;rounded&quot;:0};" vertex="1" parent="OldqRtlPYzOYGnIXXvg7-1">
          <mxGeometry x="45" y="80" width="10" height="410" as="geometry" />
        </mxCell>
        <mxCell id="OldqRtlPYzOYGnIXXvg7-3" value="проверка наличия JWT токена" style="html=1;align=left;spacingLeft=2;endArrow=block;rounded=0;edgeStyle=orthogonalEdgeStyle;curved=0;rounded=0;fontSize=9;" edge="1" parent="OldqRtlPYzOYGnIXXvg7-1">
          <mxGeometry relative="1" as="geometry">
            <mxPoint x="55" y="129.99857142857135" as="sourcePoint" />
            <Array as="points">
              <mxPoint x="70" y="129.97" />
              <mxPoint x="70" y="149.97" />
            </Array>
            <mxPoint x="55" y="149.99857142857135" as="targetPoint" />
          </mxGeometry>
        </mxCell>
        <mxCell id="OldqRtlPYzOYGnIXXvg7-4" value="" style="html=1;points=[];perimeter=orthogonalPerimeter;outlineConnect=0;targetShapes=umlLifeline;portConstraint=eastwest;newEdgeStyle={&quot;edgeStyle&quot;:&quot;elbowEdgeStyle&quot;,&quot;elbow&quot;:&quot;vertical&quot;,&quot;curved&quot;:0,&quot;rounded&quot;:0};" vertex="1" parent="OldqRtlPYzOYGnIXXvg7-1">
          <mxGeometry x="45" y="520" width="10" height="730" as="geometry" />
        </mxCell>
        <mxCell id="OldqRtlPYzOYGnIXXvg7-5" value="" style="html=1;points=[];perimeter=orthogonalPerimeter;outlineConnect=0;targetShapes=umlLifeline;portConstraint=eastwest;newEdgeStyle={&quot;edgeStyle&quot;:&quot;elbowEdgeStyle&quot;,&quot;elbow&quot;:&quot;vertical&quot;,&quot;curved&quot;:0,&quot;rounded&quot;:0};" vertex="1" parent="OldqRtlPYzOYGnIXXvg7-1">
          <mxGeometry x="45" y="1280" width="10" height="1000" as="geometry" />
        </mxCell>
        <mxCell id="OldqRtlPYzOYGnIXXvg7-141" value="" style="html=1;points=[];perimeter=orthogonalPerimeter;outlineConnect=0;targetShapes=umlLifeline;portConstraint=eastwest;newEdgeStyle={&quot;edgeStyle&quot;:&quot;elbowEdgeStyle&quot;,&quot;elbow&quot;:&quot;vertical&quot;,&quot;curved&quot;:0,&quot;rounded&quot;:0};" vertex="1" parent="OldqRtlPYzOYGnIXXvg7-1">
          <mxGeometry x="45" y="2320" width="10" height="1080" as="geometry" />
        </mxCell>
        <mxCell id="OldqRtlPYzOYGnIXXvg7-6" value="&lt;font style=&quot;font-size: 9px;&quot;&gt;Открытие приложения&lt;/font&gt;" style="html=1;verticalAlign=bottom;endArrow=block;edgeStyle=elbowEdgeStyle;elbow=vertical;curved=0;rounded=0;" edge="1" parent="1" source="OldqRtlPYzOYGnIXXvg7-15" target="OldqRtlPYzOYGnIXXvg7-2">
          <mxGeometry relative="1" as="geometry">
            <mxPoint x="115" y="120" as="sourcePoint" />
            <Array as="points">
              <mxPoint x="200" y="120" />
            </Array>
          </mxGeometry>
        </mxCell>
        <mxCell id="OldqRtlPYzOYGnIXXvg7-7" value=":Server" style="shape=umlLifeline;perimeter=lifelinePerimeter;whiteSpace=wrap;html=1;container=0;dropTarget=0;collapsible=0;recursiveResize=0;outlineConnect=0;portConstraint=eastwest;newEdgeStyle={&quot;edgeStyle&quot;:&quot;elbowEdgeStyle&quot;,&quot;elbow&quot;:&quot;vertical&quot;,&quot;curved&quot;:0,&quot;rounded&quot;:0};" vertex="1" parent="1">
          <mxGeometry x="425" y="40" width="100" height="3410" as="geometry" />
        </mxCell>
        <mxCell id="OldqRtlPYzOYGnIXXvg7-8" value="" style="html=1;points=[];perimeter=orthogonalPerimeter;outlineConnect=0;targetShapes=umlLifeline;portConstraint=eastwest;newEdgeStyle={&quot;edgeStyle&quot;:&quot;elbowEdgeStyle&quot;,&quot;elbow&quot;:&quot;vertical&quot;,&quot;curved&quot;:0,&quot;rounded&quot;:0};" vertex="1" parent="OldqRtlPYzOYGnIXXvg7-7">
          <mxGeometry x="45" y="80" width="10" height="410" as="geometry" />
        </mxCell>
        <mxCell id="OldqRtlPYzOYGnIXXvg7-9" value="" style="html=1;points=[];perimeter=orthogonalPerimeter;outlineConnect=0;targetShapes=umlLifeline;portConstraint=eastwest;newEdgeStyle={&quot;edgeStyle&quot;:&quot;elbowEdgeStyle&quot;,&quot;elbow&quot;:&quot;vertical&quot;,&quot;curved&quot;:0,&quot;rounded&quot;:0};" vertex="1" parent="OldqRtlPYzOYGnIXXvg7-7">
          <mxGeometry x="45" y="580" width="10" height="620" as="geometry" />
        </mxCell>
        <mxCell id="OldqRtlPYzOYGnIXXvg7-10" value="" style="html=1;points=[];perimeter=orthogonalPerimeter;outlineConnect=0;targetShapes=umlLifeline;portConstraint=eastwest;newEdgeStyle={&quot;edgeStyle&quot;:&quot;elbowEdgeStyle&quot;,&quot;elbow&quot;:&quot;vertical&quot;,&quot;curved&quot;:0,&quot;rounded&quot;:0};" vertex="1" parent="OldqRtlPYzOYGnIXXvg7-7">
          <mxGeometry x="45" y="1280" width="10" height="100" as="geometry" />
        </mxCell>
        <mxCell id="OldqRtlPYzOYGnIXXvg7-11" value="" style="html=1;points=[];perimeter=orthogonalPerimeter;outlineConnect=0;targetShapes=umlLifeline;portConstraint=eastwest;newEdgeStyle={&quot;edgeStyle&quot;:&quot;elbowEdgeStyle&quot;,&quot;elbow&quot;:&quot;vertical&quot;,&quot;curved&quot;:0,&quot;rounded&quot;:0};" vertex="1" parent="OldqRtlPYzOYGnIXXvg7-7">
          <mxGeometry x="45" y="2040" width="10" height="190" as="geometry" />
        </mxCell>
        <mxCell id="OldqRtlPYzOYGnIXXvg7-142" value="" style="html=1;points=[];perimeter=orthogonalPerimeter;outlineConnect=0;targetShapes=umlLifeline;portConstraint=eastwest;newEdgeStyle={&quot;edgeStyle&quot;:&quot;elbowEdgeStyle&quot;,&quot;elbow&quot;:&quot;vertical&quot;,&quot;curved&quot;:0,&quot;rounded&quot;:0};" vertex="1" parent="OldqRtlPYzOYGnIXXvg7-7">
          <mxGeometry x="45" y="2360" width="10" height="80" as="geometry" />
        </mxCell>
        <mxCell id="OldqRtlPYzOYGnIXXvg7-181" value="" style="html=1;points=[];perimeter=orthogonalPerimeter;outlineConnect=0;targetShapes=umlLifeline;portConstraint=eastwest;newEdgeStyle={&quot;edgeStyle&quot;:&quot;elbowEdgeStyle&quot;,&quot;elbow&quot;:&quot;vertical&quot;,&quot;curved&quot;:0,&quot;rounded&quot;:0};" vertex="1" parent="OldqRtlPYzOYGnIXXvg7-7">
          <mxGeometry x="45" y="2870" width="10" height="130" as="geometry" />
        </mxCell>
        <mxCell id="OldqRtlPYzOYGnIXXvg7-197" value="" style="html=1;points=[];perimeter=orthogonalPerimeter;outlineConnect=0;targetShapes=umlLifeline;portConstraint=eastwest;newEdgeStyle={&quot;edgeStyle&quot;:&quot;elbowEdgeStyle&quot;,&quot;elbow&quot;:&quot;vertical&quot;,&quot;curved&quot;:0,&quot;rounded&quot;:0};" vertex="1" parent="OldqRtlPYzOYGnIXXvg7-7">
          <mxGeometry x="45" y="3090" width="10" height="170" as="geometry" />
        </mxCell>
        <mxCell id="OldqRtlPYzOYGnIXXvg7-12" value=":Database" style="shape=umlLifeline;perimeter=lifelinePerimeter;whiteSpace=wrap;html=1;container=0;dropTarget=0;collapsible=0;recursiveResize=0;outlineConnect=0;portConstraint=eastwest;newEdgeStyle={&quot;edgeStyle&quot;:&quot;elbowEdgeStyle&quot;,&quot;elbow&quot;:&quot;vertical&quot;,&quot;curved&quot;:0,&quot;rounded&quot;:0};" vertex="1" parent="1">
          <mxGeometry x="605" y="40" width="100" height="3410" as="geometry" />
        </mxCell>
        <mxCell id="OldqRtlPYzOYGnIXXvg7-13" value="" style="html=1;points=[];perimeter=orthogonalPerimeter;outlineConnect=0;targetShapes=umlLifeline;portConstraint=eastwest;newEdgeStyle={&quot;edgeStyle&quot;:&quot;elbowEdgeStyle&quot;,&quot;elbow&quot;:&quot;vertical&quot;,&quot;curved&quot;:0,&quot;rounded&quot;:0};" vertex="1" parent="OldqRtlPYzOYGnIXXvg7-12">
          <mxGeometry x="45" y="2040" width="10" height="90" as="geometry" />
        </mxCell>
        <mxCell id="OldqRtlPYzOYGnIXXvg7-143" value="" style="html=1;points=[];perimeter=orthogonalPerimeter;outlineConnect=0;targetShapes=umlLifeline;portConstraint=eastwest;newEdgeStyle={&quot;edgeStyle&quot;:&quot;elbowEdgeStyle&quot;,&quot;elbow&quot;:&quot;vertical&quot;,&quot;curved&quot;:0,&quot;rounded&quot;:0};" vertex="1" parent="OldqRtlPYzOYGnIXXvg7-12">
          <mxGeometry x="45" y="2380" width="10" height="40" as="geometry" />
        </mxCell>
        <mxCell id="OldqRtlPYzOYGnIXXvg7-169" value="" style="html=1;points=[];perimeter=orthogonalPerimeter;outlineConnect=0;targetShapes=umlLifeline;portConstraint=eastwest;newEdgeStyle={&quot;edgeStyle&quot;:&quot;elbowEdgeStyle&quot;,&quot;elbow&quot;:&quot;vertical&quot;,&quot;curved&quot;:0,&quot;rounded&quot;:0};" vertex="1" parent="OldqRtlPYzOYGnIXXvg7-12">
          <mxGeometry x="45" y="2590" width="10" height="40" as="geometry" />
        </mxCell>
        <mxCell id="OldqRtlPYzOYGnIXXvg7-182" value="" style="html=1;points=[];perimeter=orthogonalPerimeter;outlineConnect=0;targetShapes=umlLifeline;portConstraint=eastwest;newEdgeStyle={&quot;edgeStyle&quot;:&quot;elbowEdgeStyle&quot;,&quot;elbow&quot;:&quot;vertical&quot;,&quot;curved&quot;:0,&quot;rounded&quot;:0};" vertex="1" parent="OldqRtlPYzOYGnIXXvg7-12">
          <mxGeometry x="45" y="2940" width="10" height="40" as="geometry" />
        </mxCell>
        <mxCell id="OldqRtlPYzOYGnIXXvg7-188" value="Запрос на создание бронирования" style="html=1;verticalAlign=bottom;endArrow=block;edgeStyle=elbowEdgeStyle;elbow=vertical;curved=0;rounded=0;fontSize=9;" edge="1" parent="OldqRtlPYzOYGnIXXvg7-12">
          <mxGeometry relative="1" as="geometry">
            <mxPoint x="-125" y="2950" as="sourcePoint" />
            <Array as="points">
              <mxPoint x="-40" y="2950" />
            </Array>
            <mxPoint x="45" y="2950" as="targetPoint" />
          </mxGeometry>
        </mxCell>
        <mxCell id="OldqRtlPYzOYGnIXXvg7-189" value="Ответ на запрос" style="html=1;verticalAlign=bottom;endArrow=open;dashed=1;endSize=8;edgeStyle=elbowEdgeStyle;elbow=vertical;curved=0;rounded=0;fontSize=9;" edge="1" parent="OldqRtlPYzOYGnIXXvg7-12">
          <mxGeometry relative="1" as="geometry">
            <mxPoint x="-125" y="2970" as="targetPoint" />
            <Array as="points">
              <mxPoint x="-35" y="2970" />
            </Array>
            <mxPoint x="45" y="2970" as="sourcePoint" />
          </mxGeometry>
        </mxCell>
        <mxCell id="OldqRtlPYzOYGnIXXvg7-14" value="" style="shape=umlLifeline;perimeter=lifelinePerimeter;whiteSpace=wrap;html=1;container=1;dropTarget=0;collapsible=0;recursiveResize=0;outlineConnect=0;portConstraint=eastwest;newEdgeStyle={&quot;curved&quot;:0,&quot;rounded&quot;:0};participant=umlActor;" vertex="1" parent="1">
          <mxGeometry x="105" y="40" width="20" height="3410" as="geometry" />
        </mxCell>
        <mxCell id="OldqRtlPYzOYGnIXXvg7-15" value="" style="html=1;points=[];perimeter=orthogonalPerimeter;outlineConnect=0;targetShapes=umlLifeline;portConstraint=eastwest;newEdgeStyle={&quot;edgeStyle&quot;:&quot;elbowEdgeStyle&quot;,&quot;elbow&quot;:&quot;vertical&quot;,&quot;curved&quot;:0,&quot;rounded&quot;:0};" vertex="1" parent="OldqRtlPYzOYGnIXXvg7-14">
          <mxGeometry x="5" y="80" width="10" height="410" as="geometry" />
        </mxCell>
        <mxCell id="OldqRtlPYzOYGnIXXvg7-16" value="" style="html=1;points=[];perimeter=orthogonalPerimeter;outlineConnect=0;targetShapes=umlLifeline;portConstraint=eastwest;newEdgeStyle={&quot;edgeStyle&quot;:&quot;elbowEdgeStyle&quot;,&quot;elbow&quot;:&quot;vertical&quot;,&quot;curved&quot;:0,&quot;rounded&quot;:0};" vertex="1" parent="OldqRtlPYzOYGnIXXvg7-14">
          <mxGeometry x="5" y="520" width="10" height="730" as="geometry" />
        </mxCell>
        <mxCell id="OldqRtlPYzOYGnIXXvg7-17" value="" style="html=1;points=[];perimeter=orthogonalPerimeter;outlineConnect=0;targetShapes=umlLifeline;portConstraint=eastwest;newEdgeStyle={&quot;edgeStyle&quot;:&quot;elbowEdgeStyle&quot;,&quot;elbow&quot;:&quot;vertical&quot;,&quot;curved&quot;:0,&quot;rounded&quot;:0};" vertex="1" parent="OldqRtlPYzOYGnIXXvg7-14">
          <mxGeometry x="5" y="1280" width="10" height="1000" as="geometry" />
        </mxCell>
        <mxCell id="OldqRtlPYzOYGnIXXvg7-140" value="" style="html=1;points=[];perimeter=orthogonalPerimeter;outlineConnect=0;targetShapes=umlLifeline;portConstraint=eastwest;newEdgeStyle={&quot;edgeStyle&quot;:&quot;elbowEdgeStyle&quot;,&quot;elbow&quot;:&quot;vertical&quot;,&quot;curved&quot;:0,&quot;rounded&quot;:0};" vertex="1" parent="OldqRtlPYzOYGnIXXvg7-14">
          <mxGeometry x="5" y="2320" width="10" height="1080" as="geometry" />
        </mxCell>
        <mxCell id="OldqRtlPYzOYGnIXXvg7-18" value="&lt;font&gt;Запрос на получение кода приложения&lt;/font&gt;" style="html=1;verticalAlign=bottom;endArrow=block;edgeStyle=elbowEdgeStyle;elbow=vertical;curved=0;rounded=0;fontSize=9;" edge="1" parent="1" target="OldqRtlPYzOYGnIXXvg7-8">
          <mxGeometry relative="1" as="geometry">
            <mxPoint x="300" y="130" as="sourcePoint" />
            <Array as="points">
              <mxPoint x="380" y="130" />
            </Array>
            <mxPoint x="465" y="130" as="targetPoint" />
          </mxGeometry>
        </mxCell>
        <mxCell id="OldqRtlPYzOYGnIXXvg7-19" value="&lt;font size=&quot;1&quot;&gt;пользователь&lt;/font&gt;" style="text;html=1;align=center;verticalAlign=middle;resizable=0;points=[];autosize=1;strokeColor=none;fillColor=none;labelBackgroundColor=default;" vertex="1" parent="1">
          <mxGeometry x="65" y="70" width="90" height="30" as="geometry" />
        </mxCell>
        <mxCell id="OldqRtlPYzOYGnIXXvg7-20" value="Возвращение кода приложения" style="html=1;verticalAlign=bottom;endArrow=open;dashed=1;endSize=8;edgeStyle=elbowEdgeStyle;elbow=vertical;curved=0;rounded=0;fontSize=9;" edge="1" parent="1" source="OldqRtlPYzOYGnIXXvg7-8">
          <mxGeometry relative="1" as="geometry">
            <mxPoint x="300" y="150" as="targetPoint" />
            <Array as="points">
              <mxPoint x="390" y="150" />
            </Array>
            <mxPoint x="465" y="150" as="sourcePoint" />
          </mxGeometry>
        </mxCell>
        <mxCell id="OldqRtlPYzOYGnIXXvg7-21" value="проверка токена" style="html=1;align=left;spacingLeft=2;endArrow=block;rounded=0;edgeStyle=orthogonalEdgeStyle;curved=0;rounded=0;fontSize=9;" edge="1" parent="1">
          <mxGeometry relative="1" as="geometry">
            <mxPoint x="480" y="239.99800000000005" as="sourcePoint" />
            <Array as="points">
              <mxPoint x="495" y="240" />
              <mxPoint x="495" y="260" />
            </Array>
            <mxPoint x="480" y="260" as="targetPoint" />
          </mxGeometry>
        </mxCell>
        <mxCell id="OldqRtlPYzOYGnIXXvg7-22" value="alt" style="shape=umlFrame;whiteSpace=wrap;html=1;pointerEvents=0;fontSize=9;width=30;height=15;" vertex="1" parent="1">
          <mxGeometry x="240" y="200" width="360" height="220" as="geometry" />
        </mxCell>
        <mxCell id="OldqRtlPYzOYGnIXXvg7-23" value="GET /auth/check-auth" style="html=1;verticalAlign=bottom;endArrow=block;edgeStyle=elbowEdgeStyle;elbow=vertical;curved=0;rounded=0;fontSize=9;" edge="1" parent="1">
          <mxGeometry relative="1" as="geometry">
            <mxPoint x="300" y="229.86" as="sourcePoint" />
            <Array as="points">
              <mxPoint x="390" y="229.86" />
            </Array>
            <mxPoint x="470" y="229.86" as="targetPoint" />
            <mxPoint as="offset" />
          </mxGeometry>
        </mxCell>
        <mxCell id="OldqRtlPYzOYGnIXXvg7-24" value="- JWT" style="text;html=1;align=center;verticalAlign=middle;resizable=0;points=[];autosize=1;strokeColor=none;fillColor=none;fontSize=8;" vertex="1" parent="1">
          <mxGeometry x="360" y="230" width="40" height="20" as="geometry" />
        </mxCell>
        <mxCell id="OldqRtlPYzOYGnIXXvg7-25" value="alt" style="shape=umlFrame;whiteSpace=wrap;html=1;pointerEvents=0;fontSize=9;width=30;height=15;" vertex="1" parent="1">
          <mxGeometry x="255" y="270" width="325" height="140" as="geometry" />
        </mxCell>
        <mxCell id="OldqRtlPYzOYGnIXXvg7-26" value="[Имеет токен]" style="text;html=1;align=center;verticalAlign=middle;whiteSpace=wrap;rounded=0;fontSize=9;" vertex="1" parent="1">
          <mxGeometry x="300" y="190" width="170" height="30" as="geometry" />
        </mxCell>
        <mxCell id="OldqRtlPYzOYGnIXXvg7-27" value="&lt;font size=&quot;1&quot;&gt;[токен валидный]&lt;/font&gt;" style="text;html=1;align=center;verticalAlign=middle;resizable=0;points=[];autosize=1;strokeColor=none;fillColor=none;" vertex="1" parent="1">
          <mxGeometry x="335" y="260" width="100" height="30" as="geometry" />
        </mxCell>
        <mxCell id="OldqRtlPYzOYGnIXXvg7-28" value="обновление токена" style="html=1;align=left;spacingLeft=2;endArrow=block;rounded=0;edgeStyle=orthogonalEdgeStyle;curved=0;rounded=0;fontSize=9;" edge="1" parent="1">
          <mxGeometry relative="1" as="geometry">
            <mxPoint x="480" y="279.99800000000005" as="sourcePoint" />
            <Array as="points">
              <mxPoint x="495" y="280" />
              <mxPoint x="495" y="300" />
            </Array>
            <mxPoint x="480" y="300" as="targetPoint" />
          </mxGeometry>
        </mxCell>
        <mxCell id="OldqRtlPYzOYGnIXXvg7-29" value="Возврат обновленного токена" style="html=1;verticalAlign=bottom;endArrow=open;dashed=1;endSize=8;edgeStyle=elbowEdgeStyle;elbow=vertical;curved=0;rounded=0;fontSize=9;" edge="1" parent="1" target="OldqRtlPYzOYGnIXXvg7-2">
          <mxGeometry relative="1" as="geometry">
            <mxPoint x="305" y="320" as="targetPoint" />
            <Array as="points">
              <mxPoint x="395" y="320" />
            </Array>
            <mxPoint x="470" y="320" as="sourcePoint" />
          </mxGeometry>
        </mxCell>
        <mxCell id="OldqRtlPYzOYGnIXXvg7-30" value="- JWT" style="text;html=1;align=center;verticalAlign=middle;resizable=0;points=[];autosize=1;strokeColor=none;fillColor=none;fontSize=8;" vertex="1" parent="1">
          <mxGeometry x="360" y="320" width="40" height="20" as="geometry" />
        </mxCell>
        <mxCell id="OldqRtlPYzOYGnIXXvg7-31" value="" style="endArrow=none;dashed=1;html=1;rounded=0;entryX=0;entryY=0.575;entryDx=0;entryDy=0;entryPerimeter=0;exitX=0.997;exitY=0.575;exitDx=0;exitDy=0;exitPerimeter=0;" edge="1" parent="1" source="OldqRtlPYzOYGnIXXvg7-25" target="OldqRtlPYzOYGnIXXvg7-25">
          <mxGeometry width="50" height="50" relative="1" as="geometry">
            <mxPoint x="360" y="490" as="sourcePoint" />
            <mxPoint x="410" y="440" as="targetPoint" />
          </mxGeometry>
        </mxCell>
        <mxCell id="OldqRtlPYzOYGnIXXvg7-32" value="&lt;font size=&quot;1&quot;&gt;[токен невалидный]&lt;/font&gt;" style="text;html=1;align=center;verticalAlign=middle;resizable=0;points=[];autosize=1;strokeColor=none;fillColor=none;" vertex="1" parent="1">
          <mxGeometry x="330" y="340" width="110" height="30" as="geometry" />
        </mxCell>
        <mxCell id="OldqRtlPYzOYGnIXXvg7-33" value="401 Unauthorized" style="html=1;verticalAlign=bottom;endArrow=open;dashed=1;endSize=8;edgeStyle=elbowEdgeStyle;elbow=vertical;curved=0;rounded=0;fontSize=9;" edge="1" parent="1">
          <mxGeometry relative="1" as="geometry">
            <mxPoint x="300" y="380" as="targetPoint" />
            <Array as="points">
              <mxPoint x="395" y="380" />
            </Array>
            <mxPoint x="470" y="380" as="sourcePoint" />
          </mxGeometry>
        </mxCell>
        <mxCell id="OldqRtlPYzOYGnIXXvg7-34" value="200 OK" style="html=1;verticalAlign=bottom;endArrow=open;dashed=1;endSize=8;edgeStyle=elbowEdgeStyle;elbow=vertical;curved=0;rounded=0;fontSize=9;" edge="1" parent="1">
          <mxGeometry relative="1" as="geometry">
            <mxPoint x="300" y="490" as="targetPoint" />
            <Array as="points">
              <mxPoint x="390" y="490" />
            </Array>
            <mxPoint x="470" y="490" as="sourcePoint" />
          </mxGeometry>
        </mxCell>
        <mxCell id="OldqRtlPYzOYGnIXXvg7-35" value="GET /properties/" style="html=1;verticalAlign=bottom;endArrow=block;edgeStyle=elbowEdgeStyle;elbow=vertical;curved=0;rounded=0;fontSize=9;" edge="1" parent="1">
          <mxGeometry relative="1" as="geometry">
            <mxPoint x="300" y="440" as="sourcePoint" />
            <Array as="points">
              <mxPoint x="380" y="440" />
            </Array>
            <mxPoint x="470" y="440" as="targetPoint" />
          </mxGeometry>
        </mxCell>
        <mxCell id="OldqRtlPYzOYGnIXXvg7-36" value="Ответ на запрос" style="html=1;verticalAlign=bottom;endArrow=open;dashed=1;endSize=8;edgeStyle=elbowEdgeStyle;elbow=vertical;curved=0;rounded=0;fontSize=9;" edge="1" parent="1">
          <mxGeometry relative="1" as="geometry">
            <mxPoint x="480" y="479.5" as="targetPoint" />
            <Array as="points">
              <mxPoint x="570" y="479.5" />
            </Array>
            <mxPoint x="650" y="479.5" as="sourcePoint" />
          </mxGeometry>
        </mxCell>
        <mxCell id="OldqRtlPYzOYGnIXXvg7-37" value="- List&amp;lt;Properties&amp;gt;" style="text;html=1;align=center;verticalAlign=middle;resizable=0;points=[];autosize=1;strokeColor=none;fillColor=none;fontSize=9;" vertex="1" parent="1">
          <mxGeometry x="340" y="490" width="90" height="20" as="geometry" />
        </mxCell>
        <mxCell id="OldqRtlPYzOYGnIXXvg7-38" value="Запрос на получение объявлений" style="html=1;verticalAlign=bottom;endArrow=block;edgeStyle=elbowEdgeStyle;elbow=horizontal;curved=0;rounded=0;fontSize=9;" edge="1" parent="1">
          <mxGeometry relative="1" as="geometry">
            <mxPoint x="480" y="460" as="sourcePoint" />
            <Array as="points">
              <mxPoint x="560" y="460" />
            </Array>
            <mxPoint x="650" y="460" as="targetPoint" />
          </mxGeometry>
        </mxCell>
        <mxCell id="OldqRtlPYzOYGnIXXvg7-39" value="Отображение главной страницы" style="html=1;verticalAlign=bottom;endArrow=open;dashed=1;endSize=8;edgeStyle=elbowEdgeStyle;elbow=vertical;curved=0;rounded=0;fontSize=9;" edge="1" parent="1">
          <mxGeometry relative="1" as="geometry">
            <mxPoint x="120" y="520" as="targetPoint" />
            <Array as="points">
              <mxPoint x="210" y="520" />
            </Array>
            <mxPoint x="290" y="520" as="sourcePoint" />
          </mxGeometry>
        </mxCell>
        <mxCell id="OldqRtlPYzOYGnIXXvg7-40" value="Вход в приложение" style="ellipse;whiteSpace=wrap;html=1;fontSize=9;" vertex="1" parent="1">
          <mxGeometry x="-55" y="120" width="120" height="60" as="geometry" />
        </mxCell>
        <mxCell id="OldqRtlPYzOYGnIXXvg7-41" value="Авторизация" style="ellipse;whiteSpace=wrap;html=1;fontSize=9;" vertex="1" parent="1">
          <mxGeometry x="-55" y="560" width="120" height="60" as="geometry" />
        </mxCell>
        <mxCell id="OldqRtlPYzOYGnIXXvg7-42" value="&lt;font style=&quot;font-size: 9px;&quot;&gt;Нажатие кнопки &quot;Вход/Регистрация&quot;&lt;/font&gt;" style="html=1;verticalAlign=bottom;endArrow=block;edgeStyle=elbowEdgeStyle;elbow=vertical;curved=0;rounded=0;" edge="1" parent="1">
          <mxGeometry relative="1" as="geometry">
            <mxPoint x="120" y="570" as="sourcePoint" />
            <Array as="points">
              <mxPoint x="205" y="570" />
            </Array>
            <mxPoint x="290" y="570" as="targetPoint" />
          </mxGeometry>
        </mxCell>
        <mxCell id="OldqRtlPYzOYGnIXXvg7-43" value="GET /auth/send-code/" style="html=1;verticalAlign=bottom;endArrow=block;edgeStyle=elbowEdgeStyle;elbow=vertical;curved=0;rounded=0;fontSize=9;" edge="1" parent="1">
          <mxGeometry relative="1" as="geometry">
            <mxPoint x="300" y="650" as="sourcePoint" />
            <Array as="points">
              <mxPoint x="390" y="650" />
            </Array>
            <mxPoint x="470" y="650" as="targetPoint" />
            <mxPoint as="offset" />
          </mxGeometry>
        </mxCell>
        <mxCell id="OldqRtlPYzOYGnIXXvg7-44" value="Отображение страницы ввода почты" style="html=1;verticalAlign=bottom;endArrow=open;dashed=1;endSize=8;edgeStyle=elbowEdgeStyle;elbow=vertical;curved=0;rounded=0;fontSize=9;" edge="1" parent="1">
          <mxGeometry relative="1" as="geometry">
            <mxPoint x="120" y="600" as="targetPoint" />
            <Array as="points">
              <mxPoint x="210" y="600" />
            </Array>
            <mxPoint x="290" y="600" as="sourcePoint" />
          </mxGeometry>
        </mxCell>
        <mxCell id="OldqRtlPYzOYGnIXXvg7-45" value="&lt;font style=&quot;font-size: 9px;&quot;&gt;Ввод почты и запрос кода&lt;/font&gt;" style="html=1;verticalAlign=bottom;endArrow=block;edgeStyle=elbowEdgeStyle;elbow=vertical;curved=0;rounded=0;" edge="1" parent="1">
          <mxGeometry relative="1" as="geometry">
            <mxPoint x="120" y="630" as="sourcePoint" />
            <Array as="points">
              <mxPoint x="205" y="630" />
            </Array>
            <mxPoint x="290" y="630" as="targetPoint" />
          </mxGeometry>
        </mxCell>
        <mxCell id="OldqRtlPYzOYGnIXXvg7-46" value="отправить код на почту" style="html=1;align=left;spacingLeft=2;endArrow=block;rounded=0;edgeStyle=orthogonalEdgeStyle;curved=0;rounded=0;fontSize=9;" edge="1" parent="1">
          <mxGeometry relative="1" as="geometry">
            <mxPoint x="480" y="669.998" as="sourcePoint" />
            <Array as="points">
              <mxPoint x="495" y="670" />
              <mxPoint x="495" y="690" />
            </Array>
            <mxPoint x="480" y="690" as="targetPoint" />
          </mxGeometry>
        </mxCell>
        <mxCell id="OldqRtlPYzOYGnIXXvg7-47" value="Отображение страницы ввода кода" style="html=1;verticalAlign=bottom;endArrow=open;dashed=1;endSize=8;edgeStyle=elbowEdgeStyle;elbow=vertical;curved=0;rounded=0;fontSize=9;" edge="1" parent="1">
          <mxGeometry relative="1" as="geometry">
            <mxPoint x="120" y="710" as="targetPoint" />
            <Array as="points">
              <mxPoint x="210" y="710" />
            </Array>
            <mxPoint x="290" y="710" as="sourcePoint" />
          </mxGeometry>
        </mxCell>
        <mxCell id="OldqRtlPYzOYGnIXXvg7-48" value="&lt;font style=&quot;font-size: 9px;&quot;&gt;Ввод кода&lt;/font&gt;" style="html=1;verticalAlign=bottom;endArrow=block;edgeStyle=elbowEdgeStyle;elbow=vertical;curved=0;rounded=0;" edge="1" parent="1">
          <mxGeometry relative="1" as="geometry">
            <mxPoint x="120" y="740" as="sourcePoint" />
            <Array as="points">
              <mxPoint x="205" y="740" />
            </Array>
            <mxPoint x="290" y="740" as="targetPoint" />
          </mxGeometry>
        </mxCell>
        <mxCell id="OldqRtlPYzOYGnIXXvg7-49" value="GET /auth/check-code/" style="html=1;verticalAlign=bottom;endArrow=block;edgeStyle=elbowEdgeStyle;elbow=vertical;curved=0;rounded=0;fontSize=9;" edge="1" parent="1">
          <mxGeometry relative="1" as="geometry">
            <mxPoint x="300" y="760" as="sourcePoint" />
            <Array as="points">
              <mxPoint x="390" y="760" />
            </Array>
            <mxPoint x="470" y="760" as="targetPoint" />
            <mxPoint as="offset" />
          </mxGeometry>
        </mxCell>
        <mxCell id="OldqRtlPYzOYGnIXXvg7-50" value="- email" style="text;html=1;align=center;verticalAlign=middle;resizable=0;points=[];autosize=1;strokeColor=none;fillColor=none;fontSize=9;" vertex="1" parent="1">
          <mxGeometry x="360" y="650" width="50" height="20" as="geometry" />
        </mxCell>
        <mxCell id="OldqRtlPYzOYGnIXXvg7-51" value="- email&lt;div&gt;-code&lt;/div&gt;" style="text;html=1;align=center;verticalAlign=middle;resizable=0;points=[];autosize=1;strokeColor=none;fillColor=none;fontSize=9;" vertex="1" parent="1">
          <mxGeometry x="360" y="750" width="50" height="40" as="geometry" />
        </mxCell>
        <mxCell id="OldqRtlPYzOYGnIXXvg7-52" value="проверка кода" style="html=1;align=left;spacingLeft=2;endArrow=block;rounded=0;edgeStyle=orthogonalEdgeStyle;curved=0;rounded=0;fontSize=9;" edge="1" parent="1">
          <mxGeometry relative="1" as="geometry">
            <mxPoint x="480" y="779.998" as="sourcePoint" />
            <Array as="points">
              <mxPoint x="495" y="780" />
              <mxPoint x="495" y="800" />
            </Array>
            <mxPoint x="480" y="800" as="targetPoint" />
          </mxGeometry>
        </mxCell>
        <mxCell id="OldqRtlPYzOYGnIXXvg7-53" value="alt" style="shape=umlFrame;whiteSpace=wrap;html=1;pointerEvents=0;fontSize=9;width=30;height=15;" vertex="1" parent="1">
          <mxGeometry x="70" y="810" width="650" height="440" as="geometry" />
        </mxCell>
        <mxCell id="OldqRtlPYzOYGnIXXvg7-54" value="&lt;font size=&quot;1&quot;&gt;[код правильный]&lt;/font&gt;" style="text;html=1;align=center;verticalAlign=middle;resizable=0;points=[];autosize=1;strokeColor=none;fillColor=none;" vertex="1" parent="1">
          <mxGeometry x="335" y="800" width="100" height="30" as="geometry" />
        </mxCell>
        <mxCell id="OldqRtlPYzOYGnIXXvg7-55" value="alt" style="shape=umlFrame;whiteSpace=wrap;html=1;pointerEvents=0;fontSize=9;width=30;height=15;" vertex="1" parent="1">
          <mxGeometry x="80" y="875" width="620" height="295" as="geometry" />
        </mxCell>
        <mxCell id="OldqRtlPYzOYGnIXXvg7-56" value="&lt;font size=&quot;1&quot;&gt;[пользователь существует]&lt;/font&gt;" style="text;html=1;align=center;verticalAlign=middle;resizable=0;points=[];autosize=1;strokeColor=none;fillColor=none;" vertex="1" parent="1">
          <mxGeometry x="310" y="870" width="150" height="30" as="geometry" />
        </mxCell>
        <mxCell id="OldqRtlPYzOYGnIXXvg7-57" value="Запрос на получение пользователя" style="html=1;verticalAlign=bottom;endArrow=block;edgeStyle=elbowEdgeStyle;elbow=horizontal;curved=0;rounded=0;fontSize=9;" edge="1" parent="1">
          <mxGeometry relative="1" as="geometry">
            <mxPoint x="480" y="840" as="sourcePoint" />
            <Array as="points">
              <mxPoint x="560" y="840" />
            </Array>
            <mxPoint x="650" y="840" as="targetPoint" />
          </mxGeometry>
        </mxCell>
        <mxCell id="OldqRtlPYzOYGnIXXvg7-58" value="Ответ на запрос" style="html=1;verticalAlign=bottom;endArrow=open;dashed=1;endSize=8;edgeStyle=elbowEdgeStyle;elbow=vertical;curved=0;rounded=0;fontSize=9;" edge="1" parent="1">
          <mxGeometry relative="1" as="geometry">
            <mxPoint x="480" y="860" as="targetPoint" />
            <Array as="points">
              <mxPoint x="570" y="860" />
            </Array>
            <mxPoint x="650" y="860" as="sourcePoint" />
          </mxGeometry>
        </mxCell>
        <mxCell id="OldqRtlPYzOYGnIXXvg7-59" value="" style="group" connectable="0" vertex="1" parent="1">
          <mxGeometry x="80" y="960" width="620" height="30" as="geometry" />
        </mxCell>
        <mxCell id="OldqRtlPYzOYGnIXXvg7-60" value="" style="endArrow=none;dashed=1;html=1;rounded=0;exitX=0;exitY=0.5;exitDx=0;exitDy=0;exitPerimeter=0;entryX=0.995;entryY=0.5;entryDx=0;entryDy=0;entryPerimeter=0;" edge="1" parent="OldqRtlPYzOYGnIXXvg7-59">
          <mxGeometry width="50" height="50" relative="1" as="geometry">
            <mxPoint y="10" as="sourcePoint" />
            <mxPoint x="620" y="10" as="targetPoint" />
          </mxGeometry>
        </mxCell>
        <mxCell id="OldqRtlPYzOYGnIXXvg7-61" value="&lt;font size=&quot;1&quot;&gt;[новый пользователь]&lt;/font&gt;" style="text;html=1;align=center;verticalAlign=middle;resizable=0;points=[];autosize=1;strokeColor=none;fillColor=none;" vertex="1" parent="OldqRtlPYzOYGnIXXvg7-59">
          <mxGeometry x="250.00363355104838" width="120" height="30" as="geometry" />
        </mxCell>
        <mxCell id="OldqRtlPYzOYGnIXXvg7-62" value="Сохранить JWT" style="html=1;align=left;spacingLeft=2;endArrow=block;rounded=0;edgeStyle=orthogonalEdgeStyle;curved=0;rounded=0;fontSize=9;" edge="1" parent="OldqRtlPYzOYGnIXXvg7-59">
          <mxGeometry relative="1" as="geometry">
            <mxPoint x="220" y="-20.001999999999953" as="sourcePoint" />
            <Array as="points">
              <mxPoint x="235" y="-20" />
              <mxPoint x="235" />
            </Array>
            <mxPoint x="220" as="targetPoint" />
          </mxGeometry>
        </mxCell>
        <mxCell id="OldqRtlPYzOYGnIXXvg7-63" value="loop" style="shape=umlFrame;whiteSpace=wrap;html=1;pointerEvents=0;fontSize=9;width=30;height=15;" vertex="1" parent="1">
          <mxGeometry x="45" y="725" width="695" height="535" as="geometry" />
        </mxCell>
        <mxCell id="OldqRtlPYzOYGnIXXvg7-64" value="Отображение главной страницы" style="html=1;verticalAlign=bottom;endArrow=open;dashed=1;endSize=8;edgeStyle=elbowEdgeStyle;elbow=vertical;curved=0;rounded=0;fontSize=9;" edge="1" parent="1">
          <mxGeometry relative="1" as="geometry">
            <mxPoint x="120" y="1280" as="targetPoint" />
            <Array as="points">
              <mxPoint x="210" y="1280" />
            </Array>
            <mxPoint x="290" y="1280" as="sourcePoint" />
          </mxGeometry>
        </mxCell>
        <mxCell id="OldqRtlPYzOYGnIXXvg7-65" value="" style="group" connectable="0" vertex="1" parent="1">
          <mxGeometry x="300" y="920" width="170" height="20" as="geometry" />
        </mxCell>
        <mxCell id="OldqRtlPYzOYGnIXXvg7-66" value="200 Authorized" style="html=1;verticalAlign=bottom;endArrow=open;dashed=1;endSize=8;edgeStyle=elbowEdgeStyle;elbow=horizontal;curved=0;rounded=0;fontSize=9;" edge="1" parent="OldqRtlPYzOYGnIXXvg7-65">
          <mxGeometry x="0.0045" relative="1" as="geometry">
            <mxPoint as="targetPoint" />
            <Array as="points">
              <mxPoint x="90" />
            </Array>
            <mxPoint x="170" as="sourcePoint" />
            <mxPoint as="offset" />
          </mxGeometry>
        </mxCell>
        <mxCell id="OldqRtlPYzOYGnIXXvg7-67" value="- JWT" style="text;html=1;align=center;verticalAlign=middle;resizable=0;points=[];autosize=1;strokeColor=none;fillColor=none;fontSize=9;" vertex="1" parent="OldqRtlPYzOYGnIXXvg7-65">
          <mxGeometry x="55" width="50" height="20" as="geometry" />
        </mxCell>
        <mxCell id="OldqRtlPYzOYGnIXXvg7-68" value="Сгенерировать JWT" style="html=1;align=left;spacingLeft=2;endArrow=block;rounded=0;edgeStyle=orthogonalEdgeStyle;curved=0;rounded=0;fontSize=9;" edge="1" parent="1">
          <mxGeometry relative="1" as="geometry">
            <mxPoint x="480" y="889.998" as="sourcePoint" />
            <Array as="points">
              <mxPoint x="495" y="890" />
              <mxPoint x="495" y="910" />
            </Array>
            <mxPoint x="480" y="910" as="targetPoint" />
          </mxGeometry>
        </mxCell>
        <mxCell id="OldqRtlPYzOYGnIXXvg7-69" value="" style="group" connectable="0" vertex="1" parent="1">
          <mxGeometry x="120" y="1220" width="350" height="20" as="geometry" />
        </mxCell>
        <mxCell id="OldqRtlPYzOYGnIXXvg7-70" value="401 Unauthorized" style="html=1;verticalAlign=bottom;endArrow=open;dashed=1;endSize=8;edgeStyle=elbowEdgeStyle;elbow=vertical;curved=0;rounded=0;fontSize=9;" edge="1" parent="OldqRtlPYzOYGnIXXvg7-69">
          <mxGeometry relative="1" as="geometry">
            <mxPoint x="180" as="targetPoint" />
            <Array as="points">
              <mxPoint x="275" />
            </Array>
            <mxPoint x="350" as="sourcePoint" />
          </mxGeometry>
        </mxCell>
        <mxCell id="OldqRtlPYzOYGnIXXvg7-71" value="Отображение страницы ввода кода с ошибкой" style="html=1;verticalAlign=bottom;endArrow=open;dashed=1;endSize=8;edgeStyle=elbowEdgeStyle;elbow=vertical;curved=0;rounded=0;fontSize=9;" edge="1" parent="OldqRtlPYzOYGnIXXvg7-69">
          <mxGeometry relative="1" as="geometry">
            <mxPoint y="20" as="targetPoint" />
            <Array as="points">
              <mxPoint x="90" y="20" />
            </Array>
            <mxPoint x="170" y="20" as="sourcePoint" />
          </mxGeometry>
        </mxCell>
        <mxCell id="OldqRtlPYzOYGnIXXvg7-72" value="Сохранить JWT" style="html=1;align=left;spacingLeft=2;endArrow=block;rounded=0;edgeStyle=orthogonalEdgeStyle;curved=0;rounded=0;fontSize=9;" edge="1" parent="1">
          <mxGeometry relative="1" as="geometry">
            <mxPoint x="300" y="1139.998" as="sourcePoint" />
            <Array as="points">
              <mxPoint x="315" y="1140" />
              <mxPoint x="315" y="1160" />
            </Array>
            <mxPoint x="300" y="1160" as="targetPoint" />
          </mxGeometry>
        </mxCell>
        <mxCell id="OldqRtlPYzOYGnIXXvg7-73" value="" style="group" connectable="0" vertex="1" parent="1">
          <mxGeometry x="72.59999999999995" y="1180" width="647.4000000000001" height="30" as="geometry" />
        </mxCell>
        <mxCell id="OldqRtlPYzOYGnIXXvg7-74" value="" style="endArrow=none;dashed=1;html=1;rounded=0;exitX=0.002;exitY=0.867;exitDx=0;exitDy=0;exitPerimeter=0;" edge="1" parent="OldqRtlPYzOYGnIXXvg7-73">
          <mxGeometry width="50" height="50" relative="1" as="geometry">
            <mxPoint y="9.999999999999773" as="sourcePoint" />
            <mxPoint x="647.4000000000001" y="10" as="targetPoint" />
          </mxGeometry>
        </mxCell>
        <mxCell id="OldqRtlPYzOYGnIXXvg7-75" value="&lt;font size=&quot;1&quot;&gt;[код неправильный]&lt;/font&gt;" style="text;html=1;align=center;verticalAlign=middle;resizable=0;points=[];autosize=1;strokeColor=none;fillColor=none;" vertex="1" parent="OldqRtlPYzOYGnIXXvg7-73">
          <mxGeometry x="252.40000000000003" width="120" height="30" as="geometry" />
        </mxCell>
        <mxCell id="OldqRtlPYzOYGnIXXvg7-76" value="Отображение страницы ввода имени и фамилии" style="html=1;verticalAlign=bottom;endArrow=open;dashed=1;endSize=8;edgeStyle=elbowEdgeStyle;elbow=vertical;curved=0;rounded=0;fontSize=9;" edge="1" parent="1">
          <mxGeometry relative="1" as="geometry">
            <mxPoint x="120" y="1000.0000000000001" as="targetPoint" />
            <Array as="points">
              <mxPoint x="210" y="1000.0000000000001" />
            </Array>
            <mxPoint x="290" y="1000.0000000000001" as="sourcePoint" />
          </mxGeometry>
        </mxCell>
        <mxCell id="OldqRtlPYzOYGnIXXvg7-77" value="&lt;font&gt;Ввод имени и фамилии&lt;/font&gt;" style="html=1;verticalAlign=bottom;endArrow=block;edgeStyle=elbowEdgeStyle;elbow=vertical;curved=0;rounded=0;fontSize=9;" edge="1" parent="1">
          <mxGeometry relative="1" as="geometry">
            <mxPoint x="120" y="1022.82" as="sourcePoint" />
            <Array as="points">
              <mxPoint x="205" y="1022.82" />
            </Array>
            <mxPoint x="290" y="1022.82" as="targetPoint" />
          </mxGeometry>
        </mxCell>
        <mxCell id="OldqRtlPYzOYGnIXXvg7-78" value="POST /users/" style="html=1;verticalAlign=bottom;endArrow=block;edgeStyle=elbowEdgeStyle;elbow=vertical;curved=0;rounded=0;fontSize=9;" edge="1" parent="1">
          <mxGeometry relative="1" as="geometry">
            <mxPoint x="300" y="1032.8200000000002" as="sourcePoint" />
            <Array as="points">
              <mxPoint x="390" y="1032.8200000000002" />
            </Array>
            <mxPoint x="470" y="1032.8200000000002" as="targetPoint" />
            <mxPoint as="offset" />
          </mxGeometry>
        </mxCell>
        <mxCell id="OldqRtlPYzOYGnIXXvg7-79" value="Создать запись о пользователе" style="html=1;verticalAlign=bottom;endArrow=block;edgeStyle=elbowEdgeStyle;elbow=horizontal;curved=0;rounded=0;fontSize=9;" edge="1" parent="1">
          <mxGeometry relative="1" as="geometry">
            <mxPoint x="480" y="1052.8200000000002" as="sourcePoint" />
            <Array as="points">
              <mxPoint x="560" y="1052.8200000000002" />
            </Array>
            <mxPoint x="650" y="1052.8200000000002" as="targetPoint" />
          </mxGeometry>
        </mxCell>
        <mxCell id="OldqRtlPYzOYGnIXXvg7-80" value="- email&lt;div&gt;- name&lt;/div&gt;&lt;div&gt;- surname&lt;/div&gt;" style="text;html=1;align=center;verticalAlign=middle;resizable=0;points=[];autosize=1;strokeColor=none;fillColor=none;fontSize=9;" vertex="1" parent="1">
          <mxGeometry x="350" y="1022.82" width="60" height="50" as="geometry" />
        </mxCell>
        <mxCell id="OldqRtlPYzOYGnIXXvg7-81" value="Пользователь создан" style="html=1;verticalAlign=bottom;endArrow=open;dashed=1;endSize=8;edgeStyle=elbowEdgeStyle;elbow=vertical;curved=0;rounded=0;fontSize=9;" edge="1" parent="1">
          <mxGeometry relative="1" as="geometry">
            <mxPoint x="480" y="1072.8200000000002" as="targetPoint" />
            <Array as="points">
              <mxPoint x="570" y="1072.8200000000002" />
            </Array>
            <mxPoint x="650" y="1072.8200000000002" as="sourcePoint" />
          </mxGeometry>
        </mxCell>
        <mxCell id="OldqRtlPYzOYGnIXXvg7-82" value="" style="group" connectable="0" vertex="1" parent="1">
          <mxGeometry x="300" y="1120.0000000000002" width="170" height="20" as="geometry" />
        </mxCell>
        <mxCell id="OldqRtlPYzOYGnIXXvg7-83" value="201 Created and authorized" style="html=1;verticalAlign=bottom;endArrow=open;dashed=1;endSize=8;edgeStyle=elbowEdgeStyle;elbow=horizontal;curved=0;rounded=0;fontSize=9;" edge="1" parent="OldqRtlPYzOYGnIXXvg7-82">
          <mxGeometry x="0.0045" relative="1" as="geometry">
            <mxPoint as="targetPoint" />
            <Array as="points">
              <mxPoint x="90" />
            </Array>
            <mxPoint x="170" as="sourcePoint" />
            <mxPoint as="offset" />
          </mxGeometry>
        </mxCell>
        <mxCell id="OldqRtlPYzOYGnIXXvg7-84" value="- JWT" style="text;html=1;align=center;verticalAlign=middle;resizable=0;points=[];autosize=1;strokeColor=none;fillColor=none;fontSize=9;" vertex="1" parent="OldqRtlPYzOYGnIXXvg7-82">
          <mxGeometry x="55" width="50" height="20" as="geometry" />
        </mxCell>
        <mxCell id="OldqRtlPYzOYGnIXXvg7-85" value="Сгенерировать JWT" style="html=1;align=left;spacingLeft=2;endArrow=block;rounded=0;edgeStyle=orthogonalEdgeStyle;curved=0;rounded=0;fontSize=9;" edge="1" parent="1">
          <mxGeometry relative="1" as="geometry">
            <mxPoint x="480" y="1089.998" as="sourcePoint" />
            <Array as="points">
              <mxPoint x="495" y="1090" />
              <mxPoint x="495" y="1110" />
            </Array>
            <mxPoint x="480" y="1110" as="targetPoint" />
          </mxGeometry>
        </mxCell>
        <mxCell id="OldqRtlPYzOYGnIXXvg7-86" value="Добавление объявления" style="ellipse;whiteSpace=wrap;html=1;fontSize=9;" vertex="1" parent="1">
          <mxGeometry x="-55" y="1330" width="120" height="60" as="geometry" />
        </mxCell>
        <mxCell id="OldqRtlPYzOYGnIXXvg7-87" value="&lt;font&gt;Нажатие кнопки &quot;Сдать жилье&quot;&lt;/font&gt;" style="html=1;verticalAlign=bottom;endArrow=block;edgeStyle=elbowEdgeStyle;elbow=vertical;curved=0;rounded=0;fontSize=9;" edge="1" parent="1">
          <mxGeometry relative="1" as="geometry">
            <mxPoint x="120" y="1329.7" as="sourcePoint" />
            <Array as="points">
              <mxPoint x="205" y="1329.7" />
            </Array>
            <mxPoint x="290" y="1329.7" as="targetPoint" />
          </mxGeometry>
        </mxCell>
        <mxCell id="OldqRtlPYzOYGnIXXvg7-88" value="&lt;font&gt;Запрос на получение объявлений&lt;br&gt;по id владельца&lt;/font&gt;" style="html=1;verticalAlign=bottom;endArrow=block;edgeStyle=elbowEdgeStyle;elbow=vertical;curved=0;rounded=0;fontSize=9;" edge="1" parent="1">
          <mxGeometry relative="1" as="geometry">
            <mxPoint x="480" y="1359.74" as="sourcePoint" />
            <Array as="points">
              <mxPoint x="565" y="1359.74" />
            </Array>
            <mxPoint x="650" y="1359.74" as="targetPoint" />
          </mxGeometry>
        </mxCell>
        <mxCell id="OldqRtlPYzOYGnIXXvg7-89" value="&lt;font&gt;GET /properties/?ownerId=...&lt;/font&gt;" style="html=1;verticalAlign=bottom;endArrow=block;edgeStyle=elbowEdgeStyle;elbow=vertical;curved=0;rounded=0;fontSize=9;" edge="1" parent="1">
          <mxGeometry relative="1" as="geometry">
            <mxPoint x="300" y="1344.74" as="sourcePoint" />
            <Array as="points">
              <mxPoint x="385" y="1344.74" />
            </Array>
            <mxPoint x="470" y="1344.74" as="targetPoint" />
          </mxGeometry>
        </mxCell>
        <mxCell id="OldqRtlPYzOYGnIXXvg7-90" value="Ответ на запрос" style="html=1;verticalAlign=bottom;endArrow=open;dashed=1;endSize=8;edgeStyle=elbowEdgeStyle;elbow=vertical;curved=0;rounded=0;fontSize=9;" edge="1" parent="1">
          <mxGeometry relative="1" as="geometry">
            <mxPoint x="480" y="1380.0000000000002" as="targetPoint" />
            <Array as="points">
              <mxPoint x="570" y="1380.0000000000002" />
            </Array>
            <mxPoint x="650" y="1380.0000000000002" as="sourcePoint" />
          </mxGeometry>
        </mxCell>
        <mxCell id="OldqRtlPYzOYGnIXXvg7-91" value="" style="group" connectable="0" vertex="1" parent="1">
          <mxGeometry x="300" y="1400" width="170" height="20" as="geometry" />
        </mxCell>
        <mxCell id="OldqRtlPYzOYGnIXXvg7-92" value="200 OK" style="html=1;verticalAlign=bottom;endArrow=open;dashed=1;endSize=8;edgeStyle=elbowEdgeStyle;elbow=vertical;curved=0;rounded=0;fontSize=9;" edge="1" parent="OldqRtlPYzOYGnIXXvg7-91">
          <mxGeometry relative="1" as="geometry">
            <mxPoint y="2.2737367544323206e-13" as="targetPoint" />
            <Array as="points">
              <mxPoint x="90" y="2.2737367544323206e-13" />
            </Array>
            <mxPoint x="170" y="2.2737367544323206e-13" as="sourcePoint" />
          </mxGeometry>
        </mxCell>
        <mxCell id="OldqRtlPYzOYGnIXXvg7-93" value="- List&amp;lt;Properties&amp;gt;" style="text;html=1;align=center;verticalAlign=middle;resizable=0;points=[];autosize=1;strokeColor=none;fillColor=none;fontSize=9;" vertex="1" parent="OldqRtlPYzOYGnIXXvg7-91">
          <mxGeometry x="40" width="90" height="20" as="geometry" />
        </mxCell>
        <mxCell id="OldqRtlPYzOYGnIXXvg7-94" value="Отображение страницы &quot;Сдать жилье&quot;" style="html=1;verticalAlign=bottom;endArrow=open;dashed=1;endSize=8;edgeStyle=elbowEdgeStyle;elbow=vertical;curved=0;rounded=0;fontSize=9;" edge="1" parent="1">
          <mxGeometry relative="1" as="geometry">
            <mxPoint x="120" y="1420" as="targetPoint" />
            <Array as="points">
              <mxPoint x="210" y="1420" />
            </Array>
            <mxPoint x="290" y="1420" as="sourcePoint" />
          </mxGeometry>
        </mxCell>
        <mxCell id="OldqRtlPYzOYGnIXXvg7-95" value="&lt;font&gt;Нажатие кнопки &quot;Разместить объявление&quot;&lt;/font&gt;" style="html=1;verticalAlign=bottom;endArrow=block;edgeStyle=elbowEdgeStyle;elbow=vertical;curved=0;rounded=0;fontSize=9;" edge="1" parent="1">
          <mxGeometry relative="1" as="geometry">
            <mxPoint x="120" y="1450" as="sourcePoint" />
            <Array as="points">
              <mxPoint x="205" y="1450" />
            </Array>
            <mxPoint x="290" y="1450" as="targetPoint" />
          </mxGeometry>
        </mxCell>
        <mxCell id="OldqRtlPYzOYGnIXXvg7-96" value="Отображение экрана выбора категорий" style="html=1;verticalAlign=bottom;endArrow=open;dashed=1;endSize=8;edgeStyle=elbowEdgeStyle;elbow=vertical;curved=0;rounded=0;fontSize=9;" edge="1" parent="1">
          <mxGeometry relative="1" as="geometry">
            <mxPoint x="120" y="1470" as="targetPoint" />
            <Array as="points">
              <mxPoint x="210" y="1470" />
            </Array>
            <mxPoint x="290" y="1470" as="sourcePoint" />
          </mxGeometry>
        </mxCell>
        <mxCell id="OldqRtlPYzOYGnIXXvg7-97" value="&lt;font&gt;Выбрать категории&lt;/font&gt;" style="html=1;verticalAlign=bottom;endArrow=block;edgeStyle=elbowEdgeStyle;elbow=vertical;curved=0;rounded=0;fontSize=9;" edge="1" parent="1">
          <mxGeometry relative="1" as="geometry">
            <mxPoint x="120" y="1490" as="sourcePoint" />
            <Array as="points">
              <mxPoint x="205" y="1490" />
            </Array>
            <mxPoint x="290" y="1490" as="targetPoint" />
          </mxGeometry>
        </mxCell>
        <mxCell id="OldqRtlPYzOYGnIXXvg7-98" value="Сохранить категории" style="html=1;align=left;spacingLeft=2;endArrow=block;rounded=0;edgeStyle=orthogonalEdgeStyle;curved=0;rounded=0;fontSize=9;" edge="1" parent="1">
          <mxGeometry relative="1" as="geometry">
            <mxPoint x="300" y="1499.998" as="sourcePoint" />
            <Array as="points">
              <mxPoint x="315" y="1500" />
              <mxPoint x="315" y="1520" />
            </Array>
            <mxPoint x="300" y="1520" as="targetPoint" />
          </mxGeometry>
        </mxCell>
        <mxCell id="OldqRtlPYzOYGnIXXvg7-99" value="Отображение экрана ввода&lt;div&gt;основной информации&lt;/div&gt;" style="html=1;verticalAlign=bottom;endArrow=open;dashed=1;endSize=8;edgeStyle=elbowEdgeStyle;elbow=vertical;curved=0;rounded=0;fontSize=9;" edge="1" parent="1">
          <mxGeometry relative="1" as="geometry">
            <mxPoint x="120" y="1530" as="targetPoint" />
            <Array as="points">
              <mxPoint x="210" y="1530" />
            </Array>
            <mxPoint x="290" y="1530" as="sourcePoint" />
          </mxGeometry>
        </mxCell>
        <mxCell id="OldqRtlPYzOYGnIXXvg7-100" value="&lt;font&gt;Ввод основной информации&lt;/font&gt;" style="html=1;verticalAlign=bottom;endArrow=block;edgeStyle=elbowEdgeStyle;elbow=vertical;curved=0;rounded=0;fontSize=9;" edge="1" parent="1">
          <mxGeometry relative="1" as="geometry">
            <mxPoint x="120" y="1560" as="sourcePoint" />
            <Array as="points">
              <mxPoint x="205" y="1560" />
            </Array>
            <mxPoint x="290" y="1560" as="targetPoint" />
          </mxGeometry>
        </mxCell>
        <mxCell id="OldqRtlPYzOYGnIXXvg7-101" value=":AI API" style="shape=umlLifeline;perimeter=lifelinePerimeter;whiteSpace=wrap;html=1;container=0;dropTarget=0;collapsible=0;recursiveResize=0;outlineConnect=0;portConstraint=eastwest;newEdgeStyle={&quot;edgeStyle&quot;:&quot;elbowEdgeStyle&quot;,&quot;elbow&quot;:&quot;vertical&quot;,&quot;curved&quot;:0,&quot;rounded&quot;:0};" vertex="1" parent="1">
          <mxGeometry x="785" y="40" width="100" height="3410" as="geometry" />
        </mxCell>
        <mxCell id="OldqRtlPYzOYGnIXXvg7-102" value="loop" style="shape=umlFrame;whiteSpace=wrap;html=1;pointerEvents=0;fontSize=9;width=30;height=15;" vertex="1" parent="1">
          <mxGeometry x="60" y="1540" width="380" height="190" as="geometry" />
        </mxCell>
        <mxCell id="OldqRtlPYzOYGnIXXvg7-103" value="Валидация данных" style="html=1;align=left;spacingLeft=2;endArrow=block;rounded=0;edgeStyle=orthogonalEdgeStyle;curved=0;rounded=0;fontSize=9;" edge="1" parent="1">
          <mxGeometry relative="1" as="geometry">
            <mxPoint x="300" y="1569.998" as="sourcePoint" />
            <Array as="points">
              <mxPoint x="315" y="1570" />
              <mxPoint x="315" y="1590" />
            </Array>
            <mxPoint x="300" y="1590" as="targetPoint" />
          </mxGeometry>
        </mxCell>
        <mxCell id="OldqRtlPYzOYGnIXXvg7-104" value="alt" style="shape=umlFrame;whiteSpace=wrap;html=1;pointerEvents=0;fontSize=9;width=30;height=15;" vertex="1" parent="1">
          <mxGeometry x="80" y="1600" width="340" height="120" as="geometry" />
        </mxCell>
        <mxCell id="OldqRtlPYzOYGnIXXvg7-105" value="&lt;font size=&quot;1&quot;&gt;[информация валидна]&lt;/font&gt;" style="text;html=1;align=center;verticalAlign=middle;resizable=0;points=[];autosize=1;strokeColor=none;fillColor=none;" vertex="1" parent="1">
          <mxGeometry x="145" y="1590" width="130" height="30" as="geometry" />
        </mxCell>
        <mxCell id="OldqRtlPYzOYGnIXXvg7-106" value="Сохранить основную&lt;div&gt;информацию&lt;/div&gt;" style="html=1;align=left;spacingLeft=2;endArrow=block;rounded=0;edgeStyle=orthogonalEdgeStyle;curved=0;rounded=0;fontSize=9;" edge="1" parent="1">
          <mxGeometry relative="1" as="geometry">
            <mxPoint x="300" y="1609.998" as="sourcePoint" />
            <Array as="points">
              <mxPoint x="315" y="1610" />
              <mxPoint x="315" y="1630" />
            </Array>
            <mxPoint x="300" y="1630" as="targetPoint" />
          </mxGeometry>
        </mxCell>
        <mxCell id="OldqRtlPYzOYGnIXXvg7-107" value="" style="endArrow=none;dashed=1;html=1;rounded=0;entryX=-0.001;entryY=0.496;entryDx=0;entryDy=0;entryPerimeter=0;exitX=0.995;exitY=0.496;exitDx=0;exitDy=0;exitPerimeter=0;" edge="1" parent="1">
          <mxGeometry width="50" height="50" relative="1" as="geometry">
            <mxPoint x="418.6399999999997" y="1640" as="sourcePoint" />
            <mxPoint x="79.99999999999986" y="1640" as="targetPoint" />
          </mxGeometry>
        </mxCell>
        <mxCell id="OldqRtlPYzOYGnIXXvg7-108" value="&lt;font size=&quot;1&quot;&gt;[информация невалидна]&lt;/font&gt;" style="text;html=1;align=center;verticalAlign=middle;resizable=0;points=[];autosize=1;strokeColor=none;fillColor=none;" vertex="1" parent="1">
          <mxGeometry x="140" y="1635" width="140" height="30" as="geometry" />
        </mxCell>
        <mxCell id="OldqRtlPYzOYGnIXXvg7-109" value="Отображение экрана ввода&lt;div&gt;основной информации с ошибкой&lt;/div&gt;" style="html=1;verticalAlign=bottom;endArrow=open;dashed=1;endSize=8;edgeStyle=elbowEdgeStyle;elbow=vertical;curved=0;rounded=0;fontSize=9;" edge="1" parent="1">
          <mxGeometry relative="1" as="geometry">
            <mxPoint x="120" y="1700" as="targetPoint" />
            <Array as="points">
              <mxPoint x="210" y="1700" />
            </Array>
            <mxPoint x="290" y="1700" as="sourcePoint" />
          </mxGeometry>
        </mxCell>
        <mxCell id="OldqRtlPYzOYGnIXXvg7-110" value="" style="html=1;points=[];perimeter=orthogonalPerimeter;outlineConnect=0;targetShapes=umlLifeline;portConstraint=eastwest;newEdgeStyle={&quot;edgeStyle&quot;:&quot;elbowEdgeStyle&quot;,&quot;elbow&quot;:&quot;vertical&quot;,&quot;curved&quot;:0,&quot;rounded&quot;:0};" vertex="1" parent="1">
          <mxGeometry x="650" y="440" width="10" height="60" as="geometry" />
        </mxCell>
        <mxCell id="OldqRtlPYzOYGnIXXvg7-111" value="" style="html=1;points=[];perimeter=orthogonalPerimeter;outlineConnect=0;targetShapes=umlLifeline;portConstraint=eastwest;newEdgeStyle={&quot;edgeStyle&quot;:&quot;elbowEdgeStyle&quot;,&quot;elbow&quot;:&quot;vertical&quot;,&quot;curved&quot;:0,&quot;rounded&quot;:0};" vertex="1" parent="1">
          <mxGeometry x="650" y="820" width="10" height="270" as="geometry" />
        </mxCell>
        <mxCell id="OldqRtlPYzOYGnIXXvg7-112" value="" style="html=1;points=[];perimeter=orthogonalPerimeter;outlineConnect=0;targetShapes=umlLifeline;portConstraint=eastwest;newEdgeStyle={&quot;edgeStyle&quot;:&quot;elbowEdgeStyle&quot;,&quot;elbow&quot;:&quot;vertical&quot;,&quot;curved&quot;:0,&quot;rounded&quot;:0};" vertex="1" parent="1">
          <mxGeometry x="650" y="1320" width="10" height="90" as="geometry" />
        </mxCell>
        <mxCell id="OldqRtlPYzOYGnIXXvg7-113" value="Отобразить экран&amp;nbsp;&lt;div&gt;добавления фотографий&lt;/div&gt;" style="html=1;verticalAlign=bottom;endArrow=open;dashed=1;endSize=8;edgeStyle=elbowEdgeStyle;elbow=vertical;curved=0;rounded=0;fontSize=9;" edge="1" parent="1">
          <mxGeometry relative="1" as="geometry">
            <mxPoint x="120" y="1760" as="targetPoint" />
            <Array as="points">
              <mxPoint x="210" y="1760" />
            </Array>
            <mxPoint x="290" y="1760" as="sourcePoint" />
          </mxGeometry>
        </mxCell>
        <mxCell id="OldqRtlPYzOYGnIXXvg7-114" value="&lt;font&gt;Добавить фотографии&lt;/font&gt;" style="html=1;verticalAlign=bottom;endArrow=block;edgeStyle=elbowEdgeStyle;elbow=vertical;curved=0;rounded=0;fontSize=9;" edge="1" parent="1">
          <mxGeometry relative="1" as="geometry">
            <mxPoint x="120" y="1780" as="sourcePoint" />
            <Array as="points">
              <mxPoint x="205" y="1780" />
            </Array>
            <mxPoint x="290" y="1780" as="targetPoint" />
          </mxGeometry>
        </mxCell>
        <mxCell id="OldqRtlPYzOYGnIXXvg7-115" value="Сохранить фотографии" style="html=1;align=left;spacingLeft=2;endArrow=block;rounded=0;edgeStyle=orthogonalEdgeStyle;curved=0;rounded=0;fontSize=9;" edge="1" parent="1">
          <mxGeometry relative="1" as="geometry">
            <mxPoint x="300" y="1789.998" as="sourcePoint" />
            <Array as="points">
              <mxPoint x="315" y="1790" />
              <mxPoint x="315" y="1810" />
            </Array>
            <mxPoint x="300" y="1810" as="targetPoint" />
          </mxGeometry>
        </mxCell>
        <mxCell id="OldqRtlPYzOYGnIXXvg7-116" value="Отобразить экран ввода описания&lt;div&gt;и стоимости аренды&lt;/div&gt;" style="html=1;verticalAlign=bottom;endArrow=open;dashed=1;endSize=8;edgeStyle=elbowEdgeStyle;elbow=vertical;curved=0;rounded=0;fontSize=9;" edge="1" parent="1">
          <mxGeometry relative="1" as="geometry">
            <mxPoint x="120" y="1830" as="targetPoint" />
            <Array as="points">
              <mxPoint x="210" y="1830" />
            </Array>
            <mxPoint x="290" y="1830" as="sourcePoint" />
          </mxGeometry>
        </mxCell>
        <mxCell id="OldqRtlPYzOYGnIXXvg7-117" value="opt" style="shape=umlFrame;whiteSpace=wrap;html=1;pointerEvents=0;fontSize=9;width=30;height=15;" vertex="1" parent="1">
          <mxGeometry x="70" y="1850" width="790" height="160" as="geometry" />
        </mxCell>
        <mxCell id="OldqRtlPYzOYGnIXXvg7-118" value="&lt;font&gt;Нажатие кнопки &quot;Сгенерировать с AI&quot;&lt;/font&gt;" style="html=1;verticalAlign=bottom;endArrow=block;edgeStyle=elbowEdgeStyle;elbow=vertical;curved=0;rounded=0;fontSize=9;" edge="1" parent="1">
          <mxGeometry relative="1" as="geometry">
            <mxPoint x="120" y="1884.71" as="sourcePoint" />
            <Array as="points">
              <mxPoint x="205" y="1884.71" />
            </Array>
            <mxPoint x="290" y="1884.71" as="targetPoint" />
          </mxGeometry>
        </mxCell>
        <mxCell id="OldqRtlPYzOYGnIXXvg7-119" value="&lt;font&gt;GET /ai/generate-description/&lt;/font&gt;" style="html=1;verticalAlign=bottom;endArrow=block;edgeStyle=elbowEdgeStyle;elbow=vertical;curved=0;rounded=0;fontSize=9;" edge="1" parent="1">
          <mxGeometry x="-0.002" relative="1" as="geometry">
            <mxPoint x="300" y="1894.71" as="sourcePoint" />
            <Array as="points">
              <mxPoint x="385" y="1894.71" />
            </Array>
            <mxPoint x="470" y="1894.71" as="targetPoint" />
            <mxPoint as="offset" />
          </mxGeometry>
        </mxCell>
        <mxCell id="OldqRtlPYzOYGnIXXvg7-120" value="" style="html=1;points=[];perimeter=orthogonalPerimeter;outlineConnect=0;targetShapes=umlLifeline;portConstraint=eastwest;newEdgeStyle={&quot;edgeStyle&quot;:&quot;elbowEdgeStyle&quot;,&quot;elbow&quot;:&quot;vertical&quot;,&quot;curved&quot;:0,&quot;rounded&quot;:0};" vertex="1" parent="1">
          <mxGeometry x="830" y="1904.71" width="10" height="50" as="geometry" />
        </mxCell>
        <mxCell id="OldqRtlPYzOYGnIXXvg7-121" value="&lt;font&gt;Запрос на генерацию описания по введенным данным&lt;/font&gt;" style="html=1;verticalAlign=bottom;endArrow=block;edgeStyle=elbowEdgeStyle;elbow=vertical;curved=0;rounded=0;fontSize=9;" edge="1" parent="1" target="OldqRtlPYzOYGnIXXvg7-120">
          <mxGeometry x="-0.0008" relative="1" as="geometry">
            <mxPoint x="480" y="1914.42" as="sourcePoint" />
            <Array as="points">
              <mxPoint x="565" y="1914.42" />
            </Array>
            <mxPoint x="650" y="1914.42" as="targetPoint" />
            <mxPoint as="offset" />
          </mxGeometry>
        </mxCell>
        <mxCell id="OldqRtlPYzOYGnIXXvg7-122" value="" style="html=1;points=[];perimeter=orthogonalPerimeter;outlineConnect=0;targetShapes=umlLifeline;portConstraint=eastwest;newEdgeStyle={&quot;edgeStyle&quot;:&quot;elbowEdgeStyle&quot;,&quot;elbow&quot;:&quot;vertical&quot;,&quot;curved&quot;:0,&quot;rounded&quot;:0};" vertex="1" parent="1">
          <mxGeometry x="470" y="1874.71" width="10" height="100" as="geometry" />
        </mxCell>
        <mxCell id="OldqRtlPYzOYGnIXXvg7-123" value="&lt;font&gt;- property_info&lt;/font&gt;" style="text;html=1;align=center;verticalAlign=middle;resizable=0;points=[];autosize=1;strokeColor=none;fillColor=none;fontSize=9;" vertex="1" parent="1">
          <mxGeometry x="345" y="1889.71" width="80" height="20" as="geometry" />
        </mxCell>
        <mxCell id="OldqRtlPYzOYGnIXXvg7-124" value="200 OK" style="html=1;verticalAlign=bottom;endArrow=open;dashed=1;endSize=8;edgeStyle=elbowEdgeStyle;elbow=vertical;curved=0;rounded=0;fontSize=9;" edge="1" parent="1">
          <mxGeometry relative="1" as="geometry">
            <mxPoint x="300" y="1964.71" as="targetPoint" />
            <Array as="points">
              <mxPoint x="390" y="1964.71" />
            </Array>
            <mxPoint x="470" y="1964.71" as="sourcePoint" />
          </mxGeometry>
        </mxCell>
        <mxCell id="OldqRtlPYzOYGnIXXvg7-125" value="Сгенерированное описание" style="html=1;verticalAlign=bottom;endArrow=open;dashed=1;endSize=8;edgeStyle=elbowEdgeStyle;elbow=vertical;curved=0;rounded=0;fontSize=9;" edge="1" parent="1" source="OldqRtlPYzOYGnIXXvg7-120">
          <mxGeometry relative="1" as="geometry">
            <mxPoint x="480" y="1944.54" as="targetPoint" />
            <Array as="points">
              <mxPoint x="570" y="1944.54" />
            </Array>
            <mxPoint x="650" y="1944.54" as="sourcePoint" />
          </mxGeometry>
        </mxCell>
        <mxCell id="OldqRtlPYzOYGnIXXvg7-126" value="&lt;font&gt;- description&lt;/font&gt;" style="text;html=1;align=center;verticalAlign=middle;resizable=0;points=[];autosize=1;strokeColor=none;fillColor=none;fontSize=9;" vertex="1" parent="1">
          <mxGeometry x="350" y="1964.71" width="70" height="20" as="geometry" />
        </mxCell>
        <mxCell id="OldqRtlPYzOYGnIXXvg7-127" value="Отобразить в поле ввода&lt;div&gt;сгенерированное описание&lt;/div&gt;" style="html=1;verticalAlign=bottom;endArrow=open;dashed=1;endSize=8;edgeStyle=elbowEdgeStyle;elbow=vertical;curved=0;rounded=0;fontSize=9;" edge="1" parent="1">
          <mxGeometry relative="1" as="geometry">
            <mxPoint x="120" y="1984.71" as="targetPoint" />
            <Array as="points">
              <mxPoint x="210" y="1984.71" />
            </Array>
            <mxPoint x="290" y="1984.71" as="sourcePoint" />
          </mxGeometry>
        </mxCell>
        <mxCell id="OldqRtlPYzOYGnIXXvg7-128" value="Добавить стоимость&amp;nbsp;&lt;div&gt;аренды и&amp;nbsp;&lt;span style=&quot;background-color: light-dark(#ffffff, var(--ge-dark-color, #121212)); color: light-dark(rgb(0, 0, 0), rgb(255, 255, 255));&quot;&gt;описание&amp;nbsp;&lt;/span&gt;&lt;/div&gt;" style="html=1;verticalAlign=bottom;endArrow=block;edgeStyle=elbowEdgeStyle;elbow=vertical;curved=0;rounded=0;fontSize=9;" edge="1" parent="1">
          <mxGeometry relative="1" as="geometry">
            <mxPoint x="120" y="2040" as="sourcePoint" />
            <Array as="points">
              <mxPoint x="205" y="2040" />
            </Array>
            <mxPoint x="290" y="2040" as="targetPoint" />
          </mxGeometry>
        </mxCell>
        <mxCell id="OldqRtlPYzOYGnIXXvg7-129" value="[генерация с AI]" style="text;html=1;align=center;verticalAlign=middle;resizable=0;points=[];autosize=1;strokeColor=none;fillColor=none;fontSize=9;" vertex="1" parent="1">
          <mxGeometry x="155" y="1850" width="90" height="20" as="geometry" />
        </mxCell>
        <mxCell id="OldqRtlPYzOYGnIXXvg7-130" value="Валидация данных" style="html=1;align=left;spacingLeft=2;endArrow=block;rounded=0;edgeStyle=orthogonalEdgeStyle;curved=0;rounded=0;fontSize=9;" edge="1" parent="1">
          <mxGeometry relative="1" as="geometry">
            <mxPoint x="300" y="2049.998" as="sourcePoint" />
            <Array as="points">
              <mxPoint x="315" y="2050" />
              <mxPoint x="315" y="2070" />
            </Array>
            <mxPoint x="300" y="2070" as="targetPoint" />
          </mxGeometry>
        </mxCell>
        <mxCell id="OldqRtlPYzOYGnIXXvg7-131" value="Нажатие кнопки &quot;Далее&quot;" style="html=1;verticalAlign=bottom;endArrow=block;edgeStyle=elbowEdgeStyle;elbow=vertical;curved=0;rounded=0;fontSize=9;" edge="1" parent="1">
          <mxGeometry relative="1" as="geometry">
            <mxPoint x="120" y="2080" as="sourcePoint" />
            <Array as="points">
              <mxPoint x="205" y="2080" />
            </Array>
            <mxPoint x="290" y="2080" as="targetPoint" />
          </mxGeometry>
        </mxCell>
        <mxCell id="OldqRtlPYzOYGnIXXvg7-132" value="POST /properties/" style="html=1;verticalAlign=bottom;endArrow=block;edgeStyle=elbowEdgeStyle;elbow=vertical;curved=0;rounded=0;fontSize=9;" edge="1" parent="1">
          <mxGeometry relative="1" as="geometry">
            <mxPoint x="300" y="2100" as="sourcePoint" />
            <Array as="points">
              <mxPoint x="385" y="2100" />
            </Array>
            <mxPoint x="470" y="2100" as="targetPoint" />
          </mxGeometry>
        </mxCell>
        <mxCell id="OldqRtlPYzOYGnIXXvg7-133" value="&lt;font&gt;- ownerId&lt;/font&gt;&lt;div&gt;- address&lt;/div&gt;&lt;div&gt;- description&lt;/div&gt;&lt;div&gt;- cost&lt;/div&gt;&lt;div&gt;- area&lt;/div&gt;&lt;div&gt;- bedrooms&lt;/div&gt;&lt;div&gt;- sleepingPlaces&lt;/div&gt;&lt;div&gt;- bathrooms&lt;/div&gt;&lt;div&gt;- maxGuests&lt;/div&gt;&lt;div&gt;- List&amp;lt;Facility&amp;gt;&lt;/div&gt;&lt;div&gt;- List&amp;lt;Category&amp;gt;&lt;/div&gt;&lt;div&gt;- List&amp;lt;Image&amp;gt;&lt;/div&gt;" style="text;html=1;align=left;verticalAlign=middle;resizable=0;points=[];autosize=1;strokeColor=none;fillColor=none;fontSize=9;" vertex="1" parent="1">
          <mxGeometry x="351.3" y="2100" width="90" height="140" as="geometry" />
        </mxCell>
        <mxCell id="OldqRtlPYzOYGnIXXvg7-134" value="Запрос на создание объявления" style="html=1;verticalAlign=bottom;endArrow=block;edgeStyle=elbowEdgeStyle;elbow=vertical;curved=0;rounded=0;fontSize=9;" edge="1" parent="1">
          <mxGeometry relative="1" as="geometry">
            <mxPoint x="480" y="2120" as="sourcePoint" />
            <Array as="points">
              <mxPoint x="565" y="2120" />
            </Array>
            <mxPoint x="650" y="2120" as="targetPoint" />
          </mxGeometry>
        </mxCell>
        <mxCell id="OldqRtlPYzOYGnIXXvg7-135" value="Ответ на запрос" style="html=1;verticalAlign=bottom;endArrow=open;dashed=1;endSize=8;edgeStyle=elbowEdgeStyle;elbow=vertical;curved=0;rounded=0;fontSize=9;" edge="1" parent="1">
          <mxGeometry relative="1" as="geometry">
            <mxPoint x="480" y="2140" as="targetPoint" />
            <Array as="points">
              <mxPoint x="570" y="2140" />
            </Array>
            <mxPoint x="650" y="2140" as="sourcePoint" />
          </mxGeometry>
        </mxCell>
        <mxCell id="OldqRtlPYzOYGnIXXvg7-136" value="201 CREATED" style="html=1;verticalAlign=bottom;endArrow=open;dashed=1;endSize=8;edgeStyle=elbowEdgeStyle;elbow=vertical;curved=0;rounded=0;fontSize=9;" edge="1" parent="1">
          <mxGeometry relative="1" as="geometry">
            <mxPoint x="300" y="2260" as="targetPoint" />
            <Array as="points">
              <mxPoint x="390" y="2260" />
            </Array>
            <mxPoint x="470" y="2260" as="sourcePoint" />
          </mxGeometry>
        </mxCell>
        <mxCell id="OldqRtlPYzOYGnIXXvg7-138" value="Уведомить об отправке&lt;div&gt;объявления на модерацию&lt;/div&gt;" style="html=1;verticalAlign=bottom;endArrow=open;dashed=1;endSize=8;edgeStyle=elbowEdgeStyle;elbow=vertical;curved=0;rounded=0;fontSize=9;" edge="1" parent="1">
          <mxGeometry relative="1" as="geometry">
            <mxPoint x="120" y="2280" as="targetPoint" />
            <Array as="points">
              <mxPoint x="210" y="2280" />
            </Array>
            <mxPoint x="290" y="2280" as="sourcePoint" />
          </mxGeometry>
        </mxCell>
        <mxCell id="OldqRtlPYzOYGnIXXvg7-139" value="Бронирование объявления" style="ellipse;whiteSpace=wrap;html=1;fontSize=9;" vertex="1" parent="1">
          <mxGeometry x="-110" y="2380" width="120" height="60" as="geometry" />
        </mxCell>
        <mxCell id="OldqRtlPYzOYGnIXXvg7-144" value="Переход на главную страницу" style="html=1;verticalAlign=bottom;endArrow=block;edgeStyle=elbowEdgeStyle;elbow=vertical;curved=0;rounded=0;fontSize=9;" edge="1" parent="1">
          <mxGeometry relative="1" as="geometry">
            <mxPoint x="120" y="2390" as="sourcePoint" />
            <Array as="points">
              <mxPoint x="205" y="2390" />
            </Array>
            <mxPoint x="290" y="2390" as="targetPoint" />
          </mxGeometry>
        </mxCell>
        <mxCell id="OldqRtlPYzOYGnIXXvg7-145" value="Отобразить главную страницу" style="html=1;verticalAlign=bottom;endArrow=open;dashed=1;endSize=8;edgeStyle=elbowEdgeStyle;elbow=vertical;curved=0;rounded=0;fontSize=9;" edge="1" parent="1">
          <mxGeometry relative="1" as="geometry">
            <mxPoint x="120" y="2500" as="targetPoint" />
            <Array as="points">
              <mxPoint x="210" y="2500" />
            </Array>
            <mxPoint x="290" y="2500" as="sourcePoint" />
          </mxGeometry>
        </mxCell>
        <mxCell id="OldqRtlPYzOYGnIXXvg7-146" value="Перейти в фильтры" style="html=1;verticalAlign=bottom;endArrow=block;edgeStyle=elbowEdgeStyle;elbow=vertical;curved=0;rounded=0;fontSize=9;" edge="1" parent="1">
          <mxGeometry relative="1" as="geometry">
            <mxPoint x="120" y="2560" as="sourcePoint" />
            <Array as="points">
              <mxPoint x="205" y="2560" />
            </Array>
            <mxPoint x="290" y="2560" as="targetPoint" />
          </mxGeometry>
        </mxCell>
        <mxCell id="OldqRtlPYzOYGnIXXvg7-147" value="Отобразить страницу с фильтрами" style="html=1;verticalAlign=bottom;endArrow=open;dashed=1;endSize=8;edgeStyle=elbowEdgeStyle;elbow=vertical;curved=0;rounded=0;fontSize=9;" edge="1" parent="1">
          <mxGeometry relative="1" as="geometry">
            <mxPoint x="120" y="2580" as="targetPoint" />
            <Array as="points">
              <mxPoint x="210" y="2580" />
            </Array>
            <mxPoint x="290" y="2580" as="sourcePoint" />
          </mxGeometry>
        </mxCell>
        <mxCell id="OldqRtlPYzOYGnIXXvg7-148" value="opt" style="shape=umlFrame;whiteSpace=wrap;html=1;pointerEvents=0;fontSize=9;width=30;height=15;" vertex="1" parent="1">
          <mxGeometry x="80" y="2520" width="790" height="180" as="geometry" />
        </mxCell>
        <mxCell id="OldqRtlPYzOYGnIXXvg7-149" value="GET /properties/" style="html=1;verticalAlign=bottom;endArrow=block;edgeStyle=elbowEdgeStyle;elbow=vertical;curved=0;rounded=0;fontSize=9;" edge="1" parent="1">
          <mxGeometry relative="1" as="geometry">
            <mxPoint x="300" y="2409.66" as="sourcePoint" />
            <Array as="points">
              <mxPoint x="385" y="2409.66" />
            </Array>
            <mxPoint x="470" y="2409.66" as="targetPoint" />
          </mxGeometry>
        </mxCell>
        <mxCell id="OldqRtlPYzOYGnIXXvg7-150" value="Запрос на получение объявлений" style="html=1;verticalAlign=bottom;endArrow=block;edgeStyle=elbowEdgeStyle;elbow=vertical;curved=0;rounded=0;fontSize=9;" edge="1" parent="1">
          <mxGeometry relative="1" as="geometry">
            <mxPoint x="480" y="2430" as="sourcePoint" />
            <Array as="points">
              <mxPoint x="565" y="2430" />
            </Array>
            <mxPoint x="650" y="2430" as="targetPoint" />
          </mxGeometry>
        </mxCell>
        <mxCell id="OldqRtlPYzOYGnIXXvg7-151" value="Ответ на запрос" style="html=1;verticalAlign=bottom;endArrow=open;dashed=1;endSize=8;edgeStyle=elbowEdgeStyle;elbow=vertical;curved=0;rounded=0;fontSize=9;" edge="1" parent="1">
          <mxGeometry relative="1" as="geometry">
            <mxPoint x="480" y="2450" as="targetPoint" />
            <Array as="points">
              <mxPoint x="570" y="2450" />
            </Array>
            <mxPoint x="650" y="2450" as="sourcePoint" />
          </mxGeometry>
        </mxCell>
        <mxCell id="OldqRtlPYzOYGnIXXvg7-154" value="" style="group" connectable="0" vertex="1" parent="1">
          <mxGeometry x="300" y="2470" width="170" height="20" as="geometry" />
        </mxCell>
        <mxCell id="OldqRtlPYzOYGnIXXvg7-152" value="200 OK" style="html=1;verticalAlign=bottom;endArrow=open;dashed=1;endSize=8;edgeStyle=elbowEdgeStyle;elbow=vertical;curved=0;rounded=0;fontSize=9;" edge="1" parent="OldqRtlPYzOYGnIXXvg7-154">
          <mxGeometry relative="1" as="geometry">
            <mxPoint as="targetPoint" />
            <Array as="points">
              <mxPoint x="90" />
            </Array>
            <mxPoint x="170" as="sourcePoint" />
          </mxGeometry>
        </mxCell>
        <mxCell id="OldqRtlPYzOYGnIXXvg7-153" value="&lt;font&gt;- List&amp;lt;Property&amp;gt;&lt;/font&gt;" style="text;html=1;align=center;verticalAlign=middle;resizable=0;points=[];autosize=1;strokeColor=none;fillColor=none;fontSize=9;" vertex="1" parent="OldqRtlPYzOYGnIXXvg7-154">
          <mxGeometry x="40" width="90" height="20" as="geometry" />
        </mxCell>
        <mxCell id="OldqRtlPYzOYGnIXXvg7-155" value="&lt;font size=&quot;1&quot;&gt;[фильтрация объявлений]&lt;/font&gt;" style="text;html=1;align=center;verticalAlign=middle;resizable=0;points=[];autosize=1;strokeColor=none;fillColor=none;" vertex="1" parent="1">
          <mxGeometry x="130" y="2510" width="140" height="30" as="geometry" />
        </mxCell>
        <mxCell id="OldqRtlPYzOYGnIXXvg7-156" value="Выбрать необходимые фильтры" style="html=1;verticalAlign=bottom;endArrow=block;edgeStyle=elbowEdgeStyle;elbow=vertical;curved=0;rounded=0;fontSize=9;" edge="1" parent="1">
          <mxGeometry relative="1" as="geometry">
            <mxPoint x="120" y="2599.66" as="sourcePoint" />
            <Array as="points">
              <mxPoint x="205" y="2599.66" />
            </Array>
            <mxPoint x="290" y="2599.66" as="targetPoint" />
          </mxGeometry>
        </mxCell>
        <mxCell id="OldqRtlPYzOYGnIXXvg7-162" value="" style="group" connectable="0" vertex="1" parent="1">
          <mxGeometry x="300" y="2615" width="170" height="30" as="geometry" />
        </mxCell>
        <mxCell id="OldqRtlPYzOYGnIXXvg7-157" value="GET /properties/" style="html=1;verticalAlign=bottom;endArrow=block;edgeStyle=elbowEdgeStyle;elbow=vertical;curved=0;rounded=0;fontSize=9;" edge="1" parent="OldqRtlPYzOYGnIXXvg7-162">
          <mxGeometry relative="1" as="geometry">
            <mxPoint y="5" as="sourcePoint" />
            <Array as="points">
              <mxPoint x="85" y="5" />
            </Array>
            <mxPoint x="170" y="5" as="targetPoint" />
          </mxGeometry>
        </mxCell>
        <mxCell id="OldqRtlPYzOYGnIXXvg7-161" value="&lt;font size=&quot;1&quot;&gt;- propertyFilter&lt;/font&gt;" style="text;html=1;align=center;verticalAlign=middle;resizable=0;points=[];autosize=1;strokeColor=none;fillColor=none;" vertex="1" parent="OldqRtlPYzOYGnIXXvg7-162">
          <mxGeometry x="40" width="90" height="30" as="geometry" />
        </mxCell>
        <mxCell id="OldqRtlPYzOYGnIXXvg7-163" value="" style="html=1;points=[];perimeter=orthogonalPerimeter;outlineConnect=0;targetShapes=umlLifeline;portConstraint=eastwest;newEdgeStyle={&quot;edgeStyle&quot;:&quot;elbowEdgeStyle&quot;,&quot;elbow&quot;:&quot;vertical&quot;,&quot;curved&quot;:0,&quot;rounded&quot;:0};" vertex="1" parent="1">
          <mxGeometry x="470" y="2610" width="10" height="80" as="geometry" />
        </mxCell>
        <mxCell id="OldqRtlPYzOYGnIXXvg7-167" value="Запрос на получение объявлений&lt;div&gt;с выбранными фильтрами&lt;/div&gt;" style="html=1;verticalAlign=bottom;endArrow=block;edgeStyle=elbowEdgeStyle;elbow=vertical;curved=0;rounded=0;fontSize=9;" edge="1" parent="1">
          <mxGeometry relative="1" as="geometry">
            <mxPoint x="480" y="2640" as="sourcePoint" />
            <Array as="points">
              <mxPoint x="565" y="2640" />
            </Array>
            <mxPoint x="650" y="2640" as="targetPoint" />
          </mxGeometry>
        </mxCell>
        <mxCell id="OldqRtlPYzOYGnIXXvg7-168" value="Ответ на запрос" style="html=1;verticalAlign=bottom;endArrow=open;dashed=1;endSize=8;edgeStyle=elbowEdgeStyle;elbow=vertical;curved=0;rounded=0;fontSize=9;" edge="1" parent="1">
          <mxGeometry relative="1" as="geometry">
            <mxPoint x="480" y="2660" as="targetPoint" />
            <Array as="points">
              <mxPoint x="570" y="2660" />
            </Array>
            <mxPoint x="650" y="2660" as="sourcePoint" />
          </mxGeometry>
        </mxCell>
        <mxCell id="OldqRtlPYzOYGnIXXvg7-170" value="" style="group" connectable="0" vertex="1" parent="1">
          <mxGeometry x="300" y="2680" width="170" height="20" as="geometry" />
        </mxCell>
        <mxCell id="OldqRtlPYzOYGnIXXvg7-171" value="200 OK" style="html=1;verticalAlign=bottom;endArrow=open;dashed=1;endSize=8;edgeStyle=elbowEdgeStyle;elbow=vertical;curved=0;rounded=0;fontSize=9;" edge="1" parent="OldqRtlPYzOYGnIXXvg7-170">
          <mxGeometry relative="1" as="geometry">
            <mxPoint as="targetPoint" />
            <Array as="points">
              <mxPoint x="90" />
            </Array>
            <mxPoint x="170" as="sourcePoint" />
          </mxGeometry>
        </mxCell>
        <mxCell id="OldqRtlPYzOYGnIXXvg7-172" value="&lt;font&gt;- List&amp;lt;Property&amp;gt;&lt;/font&gt;" style="text;html=1;align=center;verticalAlign=middle;resizable=0;points=[];autosize=1;strokeColor=none;fillColor=none;fontSize=9;" vertex="1" parent="OldqRtlPYzOYGnIXXvg7-170">
          <mxGeometry x="40" width="90" height="20" as="geometry" />
        </mxCell>
        <mxCell id="OldqRtlPYzOYGnIXXvg7-173" value="Переход по понравившемуся&lt;div&gt;объявлению&lt;/div&gt;" style="html=1;verticalAlign=bottom;endArrow=block;edgeStyle=elbowEdgeStyle;elbow=vertical;curved=0;rounded=0;fontSize=9;" edge="1" parent="1">
          <mxGeometry relative="1" as="geometry">
            <mxPoint x="120" y="2740" as="sourcePoint" />
            <Array as="points">
              <mxPoint x="205" y="2740" />
            </Array>
            <mxPoint x="290" y="2740" as="targetPoint" />
          </mxGeometry>
        </mxCell>
        <mxCell id="OldqRtlPYzOYGnIXXvg7-174" value="Отобразить страницу объявления" style="html=1;verticalAlign=bottom;endArrow=open;dashed=1;endSize=8;edgeStyle=elbowEdgeStyle;elbow=vertical;curved=0;rounded=0;fontSize=9;" edge="1" parent="1">
          <mxGeometry relative="1" as="geometry">
            <mxPoint x="120" y="2770" as="targetPoint" />
            <Array as="points">
              <mxPoint x="210" y="2770" />
            </Array>
            <mxPoint x="290" y="2770" as="sourcePoint" />
          </mxGeometry>
        </mxCell>
        <mxCell id="OldqRtlPYzOYGnIXXvg7-175" value="Нажатие на &quot;Выбрать даты&quot;" style="html=1;verticalAlign=bottom;endArrow=block;edgeStyle=elbowEdgeStyle;elbow=vertical;curved=0;rounded=0;fontSize=9;" edge="1" parent="1">
          <mxGeometry relative="1" as="geometry">
            <mxPoint x="120" y="2800" as="sourcePoint" />
            <Array as="points">
              <mxPoint x="205" y="2800" />
            </Array>
            <mxPoint x="290" y="2800" as="targetPoint" />
          </mxGeometry>
        </mxCell>
        <mxCell id="OldqRtlPYzOYGnIXXvg7-176" value="Отобразить страницу календаря&lt;div&gt;со свободными и занятыми датами&lt;/div&gt;" style="html=1;verticalAlign=bottom;endArrow=open;dashed=1;endSize=8;edgeStyle=elbowEdgeStyle;elbow=vertical;curved=0;rounded=0;fontSize=9;" edge="1" parent="1">
          <mxGeometry x="-0.002" relative="1" as="geometry">
            <mxPoint x="120" y="2840" as="targetPoint" />
            <Array as="points">
              <mxPoint x="210" y="2840" />
            </Array>
            <mxPoint x="290" y="2840" as="sourcePoint" />
            <mxPoint as="offset" />
          </mxGeometry>
        </mxCell>
        <mxCell id="OldqRtlPYzOYGnIXXvg7-177" value="Выбрать свободные даты" style="html=1;verticalAlign=bottom;endArrow=block;edgeStyle=elbowEdgeStyle;elbow=vertical;curved=0;rounded=0;fontSize=9;" edge="1" parent="1">
          <mxGeometry relative="1" as="geometry">
            <mxPoint x="120" y="2870" as="sourcePoint" />
            <Array as="points">
              <mxPoint x="205" y="2870" />
            </Array>
            <mxPoint x="290" y="2870" as="targetPoint" />
          </mxGeometry>
        </mxCell>
        <mxCell id="OldqRtlPYzOYGnIXXvg7-178" value="alt" style="shape=umlFrame;whiteSpace=wrap;html=1;pointerEvents=0;fontSize=9;width=30;height=15;" vertex="1" parent="1">
          <mxGeometry x="70" y="2880" width="620" height="530" as="geometry" />
        </mxCell>
        <mxCell id="OldqRtlPYzOYGnIXXvg7-179" value="ref" style="shape=umlFrame;whiteSpace=wrap;html=1;pointerEvents=0;fontSize=9;width=30;height=15;" vertex="1" parent="1">
          <mxGeometry x="80" y="3370" width="240" height="30" as="geometry" />
        </mxCell>
        <mxCell id="OldqRtlPYzOYGnIXXvg7-180" value="&lt;font size=&quot;1&quot;&gt;[пользователь авторизован]&lt;/font&gt;" style="text;html=1;align=center;verticalAlign=middle;resizable=0;points=[];autosize=1;strokeColor=none;fillColor=none;" vertex="1" parent="1">
          <mxGeometry x="130" y="2870" width="150" height="30" as="geometry" />
        </mxCell>
        <mxCell id="OldqRtlPYzOYGnIXXvg7-183" value="Нажатие на &quot;Забронировать&quot;" style="html=1;verticalAlign=bottom;endArrow=block;edgeStyle=elbowEdgeStyle;elbow=vertical;curved=0;rounded=0;fontSize=9;" edge="1" parent="1">
          <mxGeometry relative="1" as="geometry">
            <mxPoint x="120" y="2910" as="sourcePoint" />
            <Array as="points">
              <mxPoint x="205" y="2910" />
            </Array>
            <mxPoint x="290" y="2910" as="targetPoint" />
          </mxGeometry>
        </mxCell>
        <mxCell id="OldqRtlPYzOYGnIXXvg7-185" value="POST /reservation/" style="html=1;verticalAlign=bottom;endArrow=block;edgeStyle=elbowEdgeStyle;elbow=vertical;curved=0;rounded=0;fontSize=9;" edge="1" parent="1">
          <mxGeometry relative="1" as="geometry">
            <mxPoint x="300" y="2930" as="sourcePoint" />
            <Array as="points">
              <mxPoint x="385" y="2930" />
            </Array>
            <mxPoint x="470" y="2930" as="targetPoint" />
          </mxGeometry>
        </mxCell>
        <mxCell id="OldqRtlPYzOYGnIXXvg7-187" value="&lt;div&gt;&lt;font&gt;- propertyId&lt;/font&gt;&lt;/div&gt;&lt;div&gt;&lt;font&gt;- reservatorId&lt;/font&gt;&lt;/div&gt;&lt;font&gt;- startDate&lt;/font&gt;&lt;div&gt;&lt;font&gt;- endDate&lt;/font&gt;&lt;/div&gt;" style="text;html=1;align=left;verticalAlign=middle;resizable=0;points=[];autosize=1;strokeColor=none;fillColor=none;fontSize=9;" vertex="1" parent="1">
          <mxGeometry x="356.3" y="2923" width="80" height="60" as="geometry" />
        </mxCell>
        <mxCell id="OldqRtlPYzOYGnIXXvg7-190" value="" style="group" connectable="0" vertex="1" parent="1">
          <mxGeometry x="300" y="3030" width="170" height="20" as="geometry" />
        </mxCell>
        <mxCell id="OldqRtlPYzOYGnIXXvg7-191" value="201 CREATED" style="html=1;verticalAlign=bottom;endArrow=open;dashed=1;endSize=8;edgeStyle=elbowEdgeStyle;elbow=vertical;curved=0;rounded=0;fontSize=9;" edge="1" parent="OldqRtlPYzOYGnIXXvg7-190">
          <mxGeometry relative="1" as="geometry">
            <mxPoint as="targetPoint" />
            <Array as="points">
              <mxPoint x="90" />
            </Array>
            <mxPoint x="170" as="sourcePoint" />
          </mxGeometry>
        </mxCell>
        <mxCell id="OldqRtlPYzOYGnIXXvg7-192" value="&lt;font&gt;- reservation&lt;/font&gt;" style="text;html=1;align=center;verticalAlign=middle;resizable=0;points=[];autosize=1;strokeColor=none;fillColor=none;fontSize=9;" vertex="1" parent="OldqRtlPYzOYGnIXXvg7-190">
          <mxGeometry x="50" width="70" height="20" as="geometry" />
        </mxCell>
        <mxCell id="OldqRtlPYzOYGnIXXvg7-193" value="Отобразить экран с подтверждением&lt;div&gt;бронирования&lt;/div&gt;" style="html=1;verticalAlign=bottom;endArrow=open;dashed=1;endSize=8;edgeStyle=elbowEdgeStyle;elbow=vertical;curved=0;rounded=0;fontSize=9;" edge="1" parent="1">
          <mxGeometry x="-0.002" relative="1" as="geometry">
            <mxPoint x="120" y="3050" as="targetPoint" />
            <Array as="points">
              <mxPoint x="210" y="3050" />
            </Array>
            <mxPoint x="290" y="3050" as="sourcePoint" />
            <mxPoint as="offset" />
          </mxGeometry>
        </mxCell>
        <mxCell id="OldqRtlPYzOYGnIXXvg7-194" value="Рассчитать стоимость аренды&lt;div&gt;и комиссии&lt;/div&gt;" style="html=1;align=left;spacingLeft=2;endArrow=block;rounded=0;edgeStyle=orthogonalEdgeStyle;curved=0;rounded=0;fontSize=9;" edge="1" parent="1">
          <mxGeometry relative="1" as="geometry">
            <mxPoint x="480" y="2942.998" as="sourcePoint" />
            <Array as="points">
              <mxPoint x="495" y="2943" />
              <mxPoint x="495" y="2963" />
            </Array>
            <mxPoint x="480" y="2963" as="targetPoint" />
          </mxGeometry>
        </mxCell>
        <mxCell id="OldqRtlPYzOYGnIXXvg7-195" value="Нажатие на &quot;Подтвердить бронирование&quot;" style="html=1;verticalAlign=bottom;endArrow=block;edgeStyle=elbowEdgeStyle;elbow=vertical;curved=0;rounded=0;fontSize=8;" edge="1" parent="1">
          <mxGeometry relative="1" as="geometry">
            <mxPoint x="120" y="3080" as="sourcePoint" />
            <Array as="points">
              <mxPoint x="205" y="3080" />
            </Array>
            <mxPoint x="290" y="3080" as="targetPoint" />
          </mxGeometry>
        </mxCell>
        <mxCell id="OldqRtlPYzOYGnIXXvg7-196" value="Отобразить экран оплаты" style="html=1;verticalAlign=bottom;endArrow=open;dashed=1;endSize=8;edgeStyle=elbowEdgeStyle;elbow=vertical;curved=0;rounded=0;fontSize=9;" edge="1" parent="1">
          <mxGeometry x="-0.002" relative="1" as="geometry">
            <mxPoint x="120" y="3100" as="targetPoint" />
            <Array as="points">
              <mxPoint x="210" y="3100" />
            </Array>
            <mxPoint x="290" y="3100" as="sourcePoint" />
            <mxPoint as="offset" />
          </mxGeometry>
        </mxCell>
        <mxCell id="OldqRtlPYzOYGnIXXvg7-198" value="Произвести оплату" style="html=1;verticalAlign=bottom;endArrow=block;edgeStyle=elbowEdgeStyle;elbow=vertical;curved=0;rounded=0;fontSize=9;" edge="1" parent="1">
          <mxGeometry relative="1" as="geometry">
            <mxPoint x="120" y="3130" as="sourcePoint" />
            <Array as="points">
              <mxPoint x="205" y="3130" />
            </Array>
            <mxPoint x="290" y="3130" as="targetPoint" />
          </mxGeometry>
        </mxCell>
        <mxCell id="OldqRtlPYzOYGnIXXvg7-199" value="GET /payment/check-payment-status" style="html=1;verticalAlign=bottom;endArrow=block;edgeStyle=elbowEdgeStyle;elbow=vertical;curved=0;rounded=0;fontSize=9;" edge="1" parent="1">
          <mxGeometry relative="1" as="geometry">
            <mxPoint x="300" y="3150" as="sourcePoint" />
            <Array as="points">
              <mxPoint x="385" y="3150" />
            </Array>
            <mxPoint x="470" y="3150" as="targetPoint" />
          </mxGeometry>
        </mxCell>
        <mxCell id="OldqRtlPYzOYGnIXXvg7-200" value="Проверить статус оплаты" style="html=1;align=left;spacingLeft=2;endArrow=block;rounded=0;edgeStyle=orthogonalEdgeStyle;curved=0;rounded=0;fontSize=9;" edge="1" parent="1">
          <mxGeometry relative="1" as="geometry">
            <mxPoint x="480" y="3159.998" as="sourcePoint" />
            <Array as="points">
              <mxPoint x="495" y="3160" />
              <mxPoint x="495" y="3180" />
            </Array>
            <mxPoint x="480" y="3180" as="targetPoint" />
          </mxGeometry>
        </mxCell>
        <mxCell id="OldqRtlPYzOYGnIXXvg7-208" value="Запрос на обновление&lt;div&gt;статуса бронирования&lt;/div&gt;" style="html=1;verticalAlign=bottom;endArrow=block;edgeStyle=elbowEdgeStyle;elbow=vertical;curved=0;rounded=0;fontSize=9;" edge="1" parent="1">
          <mxGeometry relative="1" as="geometry">
            <mxPoint x="480" y="3210" as="sourcePoint" />
            <Array as="points">
              <mxPoint x="565" y="3210" />
            </Array>
            <mxPoint x="650" y="3210" as="targetPoint" />
          </mxGeometry>
        </mxCell>
        <mxCell id="OldqRtlPYzOYGnIXXvg7-209" value="" style="html=1;points=[];perimeter=orthogonalPerimeter;outlineConnect=0;targetShapes=umlLifeline;portConstraint=eastwest;newEdgeStyle={&quot;edgeStyle&quot;:&quot;elbowEdgeStyle&quot;,&quot;elbow&quot;:&quot;vertical&quot;,&quot;curved&quot;:0,&quot;rounded&quot;:0};" vertex="1" parent="1">
          <mxGeometry x="650" y="3200" width="10" height="40" as="geometry" />
        </mxCell>
        <mxCell id="OldqRtlPYzOYGnIXXvg7-210" value="Ответ на запрос" style="html=1;verticalAlign=bottom;endArrow=open;dashed=1;endSize=8;edgeStyle=elbowEdgeStyle;elbow=vertical;curved=0;rounded=0;fontSize=9;" edge="1" parent="1">
          <mxGeometry relative="1" as="geometry">
            <mxPoint x="480" y="3230" as="targetPoint" />
            <Array as="points">
              <mxPoint x="570" y="3230" />
            </Array>
            <mxPoint x="650" y="3230" as="sourcePoint" />
          </mxGeometry>
        </mxCell>
        <mxCell id="OldqRtlPYzOYGnIXXvg7-211" value="Уведомить арендодателя&lt;div&gt;о бронировании&lt;/div&gt;" style="html=1;align=left;spacingLeft=2;endArrow=block;rounded=0;edgeStyle=orthogonalEdgeStyle;curved=0;rounded=0;fontSize=9;" edge="1" parent="1">
          <mxGeometry relative="1" as="geometry">
            <mxPoint x="480" y="3249.998" as="sourcePoint" />
            <Array as="points">
              <mxPoint x="495" y="3250" />
              <mxPoint x="495" y="3270" />
            </Array>
            <mxPoint x="480" y="3270" as="targetPoint" />
          </mxGeometry>
        </mxCell>
        <mxCell id="OldqRtlPYzOYGnIXXvg7-212" value="200 OK" style="html=1;verticalAlign=bottom;endArrow=open;dashed=1;endSize=8;edgeStyle=elbowEdgeStyle;elbow=vertical;curved=0;rounded=0;fontSize=9;" edge="1" parent="1">
          <mxGeometry relative="1" as="geometry">
            <mxPoint x="300" y="3290" as="targetPoint" />
            <Array as="points">
              <mxPoint x="390" y="3290" />
            </Array>
            <mxPoint x="470" y="3290" as="sourcePoint" />
          </mxGeometry>
        </mxCell>
        <mxCell id="OldqRtlPYzOYGnIXXvg7-213" value="Отобразить экран&lt;div&gt;успешного бронирования&lt;/div&gt;" style="html=1;verticalAlign=bottom;endArrow=open;dashed=1;endSize=8;edgeStyle=elbowEdgeStyle;elbow=vertical;curved=0;rounded=0;fontSize=9;" edge="1" parent="1">
          <mxGeometry x="-0.002" relative="1" as="geometry">
            <mxPoint x="120" y="3310" as="targetPoint" />
            <Array as="points">
              <mxPoint x="210" y="3310" />
            </Array>
            <mxPoint x="290" y="3310" as="sourcePoint" />
            <mxPoint as="offset" />
          </mxGeometry>
        </mxCell>
        <mxCell id="OldqRtlPYzOYGnIXXvg7-214" value="" style="endArrow=none;dashed=1;html=1;rounded=0;exitX=0.004;exitY=0.739;exitDx=0;exitDy=0;exitPerimeter=0;entryX=0.999;entryY=0.736;entryDx=0;entryDy=0;entryPerimeter=0;" edge="1" parent="1">
          <mxGeometry width="50" height="50" relative="1" as="geometry">
            <mxPoint x="73.10000000000001" y="3321.59" as="sourcePoint" />
            <mxPoint x="690.0000000000001" y="3320" as="targetPoint" />
          </mxGeometry>
        </mxCell>
        <mxCell id="OldqRtlPYzOYGnIXXvg7-215" value="&lt;font size=&quot;1&quot;&gt;[пользователь не авторизован]&lt;/font&gt;" style="text;html=1;align=center;verticalAlign=middle;resizable=0;points=[];autosize=1;strokeColor=none;fillColor=none;" vertex="1" parent="1">
          <mxGeometry x="120" y="3320" width="170" height="30" as="geometry" />
        </mxCell>
        <mxCell id="OldqRtlPYzOYGnIXXvg7-216" value="Нажатие на &quot;Вход/Регистрация&quot;" style="html=1;verticalAlign=bottom;endArrow=block;edgeStyle=elbowEdgeStyle;elbow=vertical;curved=0;rounded=0;fontSize=9;" edge="1" parent="1">
          <mxGeometry relative="1" as="geometry">
            <mxPoint x="120" y="3360" as="sourcePoint" />
            <Array as="points">
              <mxPoint x="205" y="3360" />
            </Array>
            <mxPoint x="290" y="3360" as="targetPoint" />
          </mxGeometry>
        </mxCell>
        <mxCell id="OldqRtlPYzOYGnIXXvg7-217" value="Авторизация" style="text;html=1;align=center;verticalAlign=middle;resizable=0;points=[];autosize=1;strokeColor=none;fillColor=none;" vertex="1" parent="1">
          <mxGeometry x="150" y="3368" width="100" height="30" as="geometry" />
        </mxCell>
      </root>
    </mxGraphModel>
  </diagram>
</mxfile>
